<?xml version="1.0" encoding="UTF-8"?>
<svg xmlns="http://www.w3.org/2000/svg" viewBox="0 0 1197.85 942.8">
  <defs>
    <style>
      .cls-1 {
        fill: #979797;
      }

      .cls-2 {
        fill: #acaeb0;
      }

      .cls-3 {
        fill: #ecf1e2;
      }

      .cls-4 {
        fill: #c7d4a7;
      }

      .cls-5 {
        fill: #5ca793;
      }

      .cls-6 {
        fill: #c5c5c5;
      }

      .cls-7 {
        fill: #cbcbcb;
      }

      .cls-8 {
        fill: #727272;
      }

      .cls-9 {
        fill: #dbdbdb;
      }

      .cls-10 {
        fill: #caccce;
      }

      .cls-11 {
        fill: #fce2d3;
      }

      .cls-12 {
        fill: #9d9fa1;
      }

      .cls-13 {
        fill: #eac843;
      }

      .cls-14 {
        fill: #a9a9a9;
      }

      .cls-15 {
        fill: #9f9f9f;
      }

      .cls-16 {
        fill: #b2b2b2;
      }

      .cls-17 {
        fill: #8c8c8c;
      }

      .cls-18 {
        fill: #bababa;
      }

      .cls-19 {
        fill: #f4cc88;
      }

      .cls-20 {
        fill: #929497;
      }

      .cls-21 {
        fill: #1395b9;
      }

      .cls-22 {
        fill: #d6d6d6;
      }

      .cls-23 {
        fill: #fbeed7;
      }

      .cls-24 {
        fill: #0d3d54;
      }

      .cls-25 {
        fill: #cfdee4;
      }

      .cls-26 {
        fill: #6e8b98;
      }

      .cls-27 {
        fill: #76787a;
      }

      .cls-28 {
        fill: #fce8d5;
      }

      .cls-29 {
        fill: #696b6d;
      }

      .cls-30 {
        fill: #dedede;
      }

      .cls-31 {
        fill: #f0532d;
      }

      .cls-32 {
        fill: #a68ca6;
      }

      .cls-33 {
        fill: #d98278;
      }

      .cls-34 {
        fill: #313131;
      }

      .cls-35 {
        fill: #fcddd5;
      }

      .cls-36 {
        fill: #c02f1e;
      }

      .cls-37 {
        fill: #565759;
      }

      .cls-38 {
        fill: #f2d5d2;
      }

      .cls-39 {
        fill: #9dcabe;
      }

      .cls-40 {
        fill: #f5b981;
      }

      .cls-41 {
        fill: #dadada;
      }

      .cls-42 {
        fill: #8e8e8e;
      }

      .cls-43 {
        fill: #bbbdbf;
      }

      .cls-44 {
        fill: #b4b6b9;
      }

      .cls-45 {
        fill: #f16c21;
      }

      .cls-46 {
        fill: #70aec2;
      }

      .cls-47 {
        fill: #797b7e;
      }

      .cls-48 {
        fill: #898b8e;
      }

      .cls-49 {
        fill: #ef8b2d;
      }

      .cls-50 {
        fill: #e5e5e5;
      }

      .cls-51 {
        fill: #deede9;
      }

      .cls-52 {
        fill: #aaa;
      }

      .cls-53 {
        fill: #5d5d5d;
      }

      .cls-54 {
        fill: #fbf4d9;
      }

      .cls-55 {
        fill: #f69881;
      }

      .cls-56 {
        fill: #6b406b;
      }

      .cls-57 {
        fill: #117899;
      }

      .cls-58 {
        fill: #e8e8e8;
      }

      .cls-59 {
        fill: #9b9b9b;
      }

      .cls-60 {
        fill: #b1b1b1;
      }

      .cls-61 {
        fill: #cfe4eb;
      }

      .cls-62 {
        fill: #105b78;
      }

      .cls-63 {
        fill: #bbb;
      }

      .cls-64 {
        fill: #efefef;
      }

      .cls-65 {
        fill: #7e7e7e;
      }

      .cls-66 {
        fill: #525252;
      }

      .cls-67 {
        fill: #f2de8e;
      }

      .cls-68 {
        fill: #cfd8dd;
      }

      .cls-69 {
        fill: #f3f3f3;
      }

      .cls-70 {
        fill: #9fa1a3;
      }

      .cls-71 {
        fill: #484848;
      }

      .cls-72 {
        fill: #d0eaf1;
      }

      .cls-73 {
        fill: #595959;
      }

      .cls-74 {
        fill: #f7a77a;
      }

      .cls-75 {
        fill: #9e9e9e;
      }

      .cls-76 {
        fill: #eee;
      }

      .cls-77 {
        fill: #838383;
      }

      .cls-78 {
        fill: #919191;
      }

      .cls-79 {
        fill: #d0d0d0;
      }

      .cls-80 {
        fill: #a2b86d;
      }

      .cls-81 {
        fill: #ecaa39;
      }

      .cls-82 {
        fill: #ececec;
      }

      .cls-83 {
        fill: #c4c4c4;
      }

      .cls-84 {
        fill: #71bfd5;
      }

      .cls-85 {
        fill: #709dae;
      }

      .cls-86 {
        fill: #e3e3e3;
      }

      .cls-87 {
        fill: #dfdfdf;
      }

      #Finance_Vision:hover{fill:#D0D0D0;}
      #Finance_Excellence:hover{fill:#D0D0D0;}
      #Finance_Guidance:hover{fill:#D0D0D0;}

      #Innovation_Vision:hover{fill:#D0D0D0;}
      #Innovation_Excellence:hover{fill:#D0D0D0;}
      #Innovation_Guidance:hover{fill:#D0D0D0;}

      #Tech_Vision:hover{fill:#D0D0D0;}
      #Tech_Excellence:hover{fill:#D0D0D0;}
      #Tech_Guidance:hover{fill:#D0D0D0;}

      #DDD_Vision:hover{fill:#D0D0D0;}
      #DDD_Vision:hover{fill:#D0D0D0;}
      #DDD_Vision:hover{fill:#D0D0D0;}

      #CA_Vision:hover{fill:#D0D0D0;}
      #CA_Vision:hover{fill:#D0D0D0;}
      #CA_Vision:hover{fill:#D0D0D0;}
      
      #Design_Vision:hover{fill:#D0D0D0;}
      #Design_Vision:hover{fill:#D0D0D0;}
      #Design_Vision:hover{fill:#D0D0D0;}

      #Quality_Vision:hover{fill:#D0D0D0;}
      #Quality_Vision:hover{fill:#D0D0D0;}
      #Quality_Vision:hover{fill:#D0D0D0;}

      #SME_Vision:hover{fill:#D0D0D0;}
      #Clients_Vision:hover{fill:#D0D0D0;}
      #Marketing_Vision:hover{fill:#D0D0D0;}
      #People_Vision:hover{fill:#D0D0D0;}
      #Operations_Vision:hover{fill:#D0D0D0;}
      #Facilitation_Circle:hover{fill:#D0D0D0;}
      #Implementation_Circle:hover{fill:#D0D0D0;}

      #CA_Label:hover{fill:#D0D0D0;}
      #DDD_Label:hover{fill:#D0D0D0;}
      #Tech_Label:hover{fill:#D0D0D0;}
      #Innovation_Label:hover{fill:#D0D0D0;}
      #Finance_Label:hover{fill:#D0D0D0;}
      #Operations_Label:hover{fill:#D0D0D0;}
      #Our_People_Label:hover{fill:#D0D0D0;}
      #Marketing_Label:hover{fill:#D0D0D0;}
      #Clients_Label:hover{fill:#D0D0D0;}
      #SME_Label:hover{fill:#D0D0D0;}
      #Design_Label:hover{fill:#D0D0D0;}
      #Quality_Label:hover{fill:#D0D0D0;}
    </style>
  </defs>
  <g id="Finance">
    <path id="Finance_Vision" class="cls-21" d="M834.54,112.19l19-33c-66.64-38.56-136.47-59-219-59V58.19c74.51,0,139.83,19.19,200,54Z"/>
    <path id="Finance_Excellence" class="cls-84" d="M803.54,167.19l28-50c-60.17-34.81-122.49-53-197-53v57c63.03,0,118.1,16.55,169,46Z"/>
    <path id="Finance_Guidance" class="cls-72" d="M757.54,246.19l43-75c-50.9-29.45-102.97-44-166-44v86c46.27,0,85.64,11.38,123,33Z"/>
  </g>
  <g id="Innovation">
    <path id="Innovation_Vision" class="cls-57" d="M986.54,261.19l33-18c-39.77-68.74-92.26-121.23-161-161l-19,32c62.07,35.91,111.09,84.93,147,147Z"/>
    <path id="Innovation_Excellence" class="cls-46" d="M931.54,293.19l50-29c-35.91-62.07-82.93-108.09-145-144l-28,49c52.5,30.38,92.62,71.5,123,124Z"/>
    <path id="Innovation_Guidance" class="cls-61" d="M805.54,174.19l-43,75c38.54,22.3,67.7,51.46,90,90l75-43c-30.38-52.5-69.5-91.62-122-122Z"/>
  </g>
  <g id="Technology">
    <path id="Tech_Vision" class="cls-62" d="M1043.54,467.19h38c0-82.53-20.44-152.36-59-219l-33,18c34.81,60.17,54,126.49,54,201Z"/>
    <path id="Tech_Excellence" class="cls-85" d="M934.54,298.19c29.45,50.9,46,105.97,46,169h57c0-74.51-18.19-137.83-53-198l-50,29Z"/>
    <path id="Tech_Guidance" class="cls-25" d="M888.54,467.19h86c0-63.03-14.55-115.1-44-166l-75,43c21.62,37.36,33,76.73,33,123Z"/>
  </g>
  <g id="Dot_Dot_Dot" data-name="Dot Dot Dot">
    <path id="DDD_Vision" class="cls-24" d="M1043.54,473.19c0,74.51-19.19,141.83-54,202l32,18c38.56-66.64,60-137.47,60-220h-38Z"/>
    <path id="DDD_Excellence" class="cls-26" d="M934.54,643.19l50,29c34.81-60.17,53-124.49,53-199h-57c0,63.03-16.55,119.1-46,170Z"/>
    <path id="DDD_Guidance" class="cls-68" d="M856.54,597.19l73,43c29.45-50.9,45-103.97,45-167h-86c0,46.27-10.38,86.64-32,124Z"/>
  </g>
  <g id="Construction_Administration" data-name="Construction Administration">
    <path id="CA_Vision-Gray" class="cls-73" d="M839.54,827.19l18,31c68.74-39.77,121.23-91.26,161-160l-32-19c-35.91,62.07-84.93,112.09-147,148Z"/>
    <path id="CA_Excellence-Gray" class="cls-59" d="M808.54,772.19l28,49c62.07-35.91,109.09-81.93,145-144l-50-29c-30.38,52.5-70.5,93.62-123,124Z"/>
    <path id="CA_Guidance-Gray" class="cls-30" d="M762.54,692.19l43,75c52.5-30.38,90.62-69.5,121-122l-73-43c-22.3,38.54-52.46,67.7-91,90Z"/>
    <path id="CA_Vision" class="cls-36" d="M839.54,827.19l18,31c68.74-39.77,121.23-91.26,161-160l-32-19c-35.91,62.07-84.93,112.09-147,148Z"/>
    <path id="CA_Excellence" class="cls-33" d="M808.54,772.19l28,49c62.07-35.91,109.09-81.93,145-144l-50-29c-30.38,52.5-70.5,93.62-123,124Z"/>
    <path id="CA_Guidance" class="cls-38" d="M762.54,692.19l43,75c52.5-30.38,90.62-69.5,121-122l-73-43c-22.3,38.54-52.46,67.7-91,90Z"/>
  </g>
  <g id="Quality">
    <path id="Quality_Vision" class="cls-31" d="M634.54,882.19v37c82.42,0,151.45-19.49,218-58l-18-31c-60.09,34.77-125.58,52-200,52Z"/>
    <path id="Quality_Excellence" class="cls-55" d="M634.54,819.19v57c74.51,0,136.83-17.19,197-52l-28-49c-50.9,29.45-105.97,44-169,44Z"/>
    <path id="Quality_Guidance" class="cls-35" d="M634.54,727.19v86c63.03,0,115.1-14.55,166-44l-43-74c-37.36,21.62-76.73,32-123,32Z"/>
  </g>
  <g id="Design">
    <path id="Design_Vision" class="cls-45" d="M427.54,829.19l-19,33c66.64,38.56,137.47,57,220,57v-37c-74.51,0-140.83-18.19-201-53Z"/>
    <path id="Design_Excellence" class="cls-74" d="M459.54,775.19l-29,49c60.17,34.81,123.49,52,198,52v-57c-63.03,0-118.1-14.55-169-44Z"/>
    <path id="Design_Guidance" class="cls-11" d="M505.54,695.19l-43,75c50.9,29.45,102.97,43,166,43v-86c-46.27,0-85.64-10.38-123-32Z"/>
  </g>
  <g id="Subject_Matter_Expertise" data-name="Subject Matter Expertise">
    <path id="SME_Vision" class="cls-49" d="M276.54,680.19l-32,18c39.77,68.74,90.26,121.23,159,161l19-33c-62.06-35.91-110.09-83.94-146-146Z"/>
    <path id="SME_Excellence" class="cls-40" d="M330.54,648.19l-49,29c35.91,62.06,81.94,108.09,144,144l29-49c-52.5-30.38-93.62-71.5-124-124Z"/>
    <path id="SME_Guidance" class="cls-28" d="M410.54,602.19l-75,43c30.38,52.5,69.5,91.62,122,122l43-75c-38.54-22.3-67.7-51.46-90-90Z"/>
  </g>
  <g id="Clients">
    <path id="Clients_Vision" class="cls-81" d="M219.54,473.19h-38c0,82.53,21.44,153.36,60,220l32-19c-34.81-60.17-54-126.49-54-201Z"/>
    <path id="Clients_Excellence" class="cls-19" d="M282.54,473.19h-57c0,74.51,18.19,138.83,53,199l49-29c-29.45-50.9-45-106.97-45-170Z"/>
    <path id="Clients_Guidance" class="cls-23" d="M374.54,473.19h-86c0,63.03,14.55,116.1,44,167l75-43c-21.62-37.36-33-77.73-33-124Z"/>
  </g>
  <g id="Marketing_and_Communications" data-name="Marketing and Communications">
    <path id="Marketing_Vision" class="cls-13" d="M273.54,267.19l-33-19c-38.56,66.64-59,136.47-59,219h38c0-74.51,19.19-139.83,54-200Z"/>
    <path id="Marketing_Excellence" class="cls-67" d="M327.54,298.19l-49-29c-34.81,60.17-53,123.49-53,198h57c0-63.03,15.55-118.1,45-169Z"/>
    <path id="Marketing_Guidance" class="cls-54" d="M407.54,344.19l-75-43c-29.45,50.9-44,102.97-44,166h86c0-46.27,11.38-85.64,33-123Z"/>
  </g>
  <g id="Our_People" data-name="Our People">
    <path id="Our_People_Vision" data-name="Our People_Vision" class="cls-80" d="M422.54,115.19l-19-33c-68.74,39.77-120.23,91.26-160,160l33,19c35.91-62.06,83.94-110.09,146-146Z"/>
    <path id="Our_People_Excellence" data-name="Our People_Excellence" class="cls-4" d="M454.54,169.19l-29-49c-62.06,35.91-108.09,81.94-144,144l49,29c30.38-52.5,71.5-93.62,124-124Z"/>
    <path id="Our_People_Guidance" data-name="Our People_Guidance" class="cls-3" d="M500.54,249.19l-43-75c-52.5,30.38-91.62,69.5-122,122l75,43c22.3-38.54,51.46-67.7,90-90Z"/>
  </g>
  <g id="Operations">
    <path id="Operations_Vision" class="cls-5" d="M628.54,58.19V20.19c-82.53,0-153.36,20.44-220,59l19,33c60.17-34.81,126.49-54,201-54Z"/>
    <path id="Operations_Excellence" class="cls-39" d="M628.54,121.19v-57c-74.51,0-137.83,18.19-198,53l29,50c50.9-29.45,105.97-46,169-46Z"/>
    <path id="Operations_Guidance" class="cls-51" d="M628.54,213.19V127.19c-63.03,0-115.1,14.55-166,44l43,75c37.36-21.62,76.73-33,123-33Z"/>
  </g>
  <g id="Facilitation">
    <path id="Facilitation-Circle_Color" class="cls-56" d="M631.54,219.19c-138.62,0-251,112.38-251,251s112.38,251,251,251,251-112.38,251-251-112.38-251-251-251Zm0,394c-78.98,0-143-64.02-143-143s64.02-143,143-143,143,64.02,143,143-64.02,143-143,143Z"/>
  </g>
  <g id="Implementation">
    <circle id="Implementation-Circle_Color" class="cls-32" cx="631.54" cy="470.19" r="137"/>
  </g>
  <g id="Areas_of_Focus_Labels-Color" data-name="Areas of Focus_Labels-Color">
    <g>
    <path id="CA_Label" data-name="Construction-Administration" class="cls-36" d="M995.62,793.54c-1.04-.56-1.85-1.33-2.45-2.32s-.89-2.11-.89-3.36,.3-2.37,.89-3.36c.59-.99,1.41-1.76,2.45-2.32,1.04-.56,2.21-.84,3.5-.84,1.09,0,2.08,.19,2.96,.58,.88,.38,1.62,.94,2.22,1.66l-1.87,1.73c-.85-.98-1.91-1.48-3.17-1.48-.78,0-1.48,.17-2.09,.51-.61,.34-1.09,.82-1.43,1.43-.34,.61-.51,1.31-.51,2.09s.17,1.48,.51,2.09,.82,1.09,1.43,1.43c.61,.34,1.31,.51,2.09,.51,1.26,0,2.32-.5,3.17-1.49l1.87,1.73c-.6,.73-1.34,1.29-2.23,1.67-.89,.38-1.88,.58-2.97,.58-1.28,0-2.45-.28-3.48-.84Zm11.97,.13c-.81-.43-1.44-1.02-1.9-1.77s-.68-1.61-.68-2.57,.23-1.82,.68-2.57,1.09-1.35,1.9-1.77c.81-.43,1.72-.64,2.75-.64s1.93,.21,2.74,.64c.8,.43,1.43,1.02,1.89,1.77s.68,1.61,.68,2.57-.23,1.82-.68,2.57-1.09,1.35-1.89,1.77c-.8,.43-1.72,.64-2.74,.64s-1.94-.21-2.75-.64Zm4.52-2.39c.46-.49,.69-1.14,.69-1.95s-.23-1.47-.69-1.95-1.05-.73-1.77-.73-1.31,.24-1.78,.73-.7,1.14-.7,1.95,.23,1.47,.7,1.95,1.06,.73,1.78,.73,1.31-.24,1.77-.73Zm14.2-5.86c.74,.72,1.11,1.79,1.11,3.2v5.54h-2.81v-5.11c0-.77-.17-1.34-.5-1.72s-.82-.57-1.46-.57c-.71,0-1.27,.22-1.69,.66-.42,.44-.63,1.09-.63,1.95v4.79h-2.81v-9.68h2.68v1.13c.37-.41,.83-.72,1.39-.95,.55-.22,1.16-.33,1.82-.33,1.2,0,2.17,.36,2.91,1.08Zm4.54,8.6c-.77-.2-1.38-.45-1.84-.75l.94-2.02c.43,.28,.95,.5,1.57,.67,.61,.17,1.21,.26,1.8,.26,1.19,0,1.78-.29,1.78-.88,0-.28-.16-.47-.49-.59s-.82-.22-1.49-.31c-.79-.12-1.45-.26-1.96-.41s-.96-.43-1.34-.83-.57-.96-.57-1.69c0-.61,.18-1.16,.53-1.63,.35-.47,.87-.84,1.55-1.11s1.48-.4,2.4-.4c.68,0,1.36,.08,2.04,.22,.68,.15,1.24,.36,1.68,.62l-.94,2c-.85-.48-1.78-.72-2.79-.72-.6,0-1.05,.08-1.35,.25-.3,.17-.45,.38-.45,.65,0,.3,.16,.51,.49,.63,.32,.12,.84,.23,1.55,.34,.79,.13,1.44,.27,1.94,.42,.5,.15,.94,.42,1.31,.82,.37,.4,.56,.95,.56,1.66,0,.6-.18,1.13-.54,1.6-.36,.47-.88,.83-1.58,1.09-.69,.26-1.51,.39-2.46,.39-.8,0-1.59-.1-2.36-.3Zm14.9-.32c-.28,.2-.62,.36-1.02,.46-.4,.1-.83,.15-1.27,.15-1.15,0-2.04-.29-2.67-.88s-.95-1.45-.95-2.59v-3.98h-1.49v-2.16h1.49v-2.36h2.81v2.36h2.41v2.16h-2.41v3.94c0,.41,.1,.72,.31,.95s.51,.33,.89,.33c.44,0,.82-.12,1.13-.36l.76,1.98Zm5.62-9c.57-.24,1.23-.36,1.97-.36v2.59c-.31-.02-.52-.04-.63-.04-.8,0-1.43,.22-1.89,.67-.46,.45-.68,1.12-.68,2.03v4.57h-2.81v-9.68h2.68v1.28c.34-.47,.79-.82,1.36-1.06Zm13.47-.22v9.68h-2.66v-1.15c-.37,.42-.82,.74-1.33,.96-.52,.22-1.07,.33-1.67,.33-1.27,0-2.28-.37-3.02-1.1-.74-.73-1.12-1.82-1.12-3.26v-5.47h2.81v5.06c0,1.56,.65,2.34,1.96,2.34,.67,0,1.21-.22,1.62-.66,.41-.44,.61-1.09,.61-1.95v-4.79h2.81Zm4.51,9.19c-.82-.43-1.46-1.02-1.93-1.77s-.69-1.61-.69-2.57,.23-1.82,.69-2.57,1.1-1.35,1.93-1.77c.82-.43,1.75-.64,2.78-.64s1.91,.21,2.67,.64c.76,.43,1.32,1.04,1.67,1.83l-2.18,1.17c-.5-.89-1.23-1.33-2.18-1.33-.73,0-1.34,.24-1.82,.72-.48,.48-.72,1.13-.72,1.96s.24,1.48,.72,1.96c.48,.48,1.09,.72,1.82,.72,.96,0,1.69-.44,2.18-1.33l2.18,1.19c-.35,.77-.9,1.37-1.67,1.8-.76,.43-1.65,.65-2.67,.65s-1.96-.21-2.78-.64Zm15.13,.03c-.28,.2-.62,.36-1.02,.46-.4,.1-.83,.15-1.27,.15-1.15,0-2.04-.29-2.67-.88s-.95-1.45-.95-2.59v-3.98h-1.49v-2.16h1.49v-2.36h2.81v2.36h2.41v2.16h-2.41v3.94c0,.41,.1,.72,.31,.95s.51,.33,.89,.33c.44,0,.82-.12,1.13-.36l.76,1.98Zm1.73-11.02c-.32-.3-.49-.67-.49-1.12s.16-.82,.49-1.12c.32-.3,.74-.45,1.26-.45s.94,.14,1.26,.43c.32,.29,.49,.65,.49,1.08,0,.47-.16,.86-.49,1.16s-.74,.46-1.26,.46-.94-.15-1.26-.45Zm-.14,1.8h2.81v9.68h-2.81v-9.68Zm7.28,9.19c-.81-.43-1.44-1.02-1.9-1.77s-.68-1.61-.68-2.57,.23-1.82,.68-2.57,1.09-1.35,1.9-1.77c.81-.43,1.72-.64,2.75-.64s1.93,.21,2.74,.64c.8,.43,1.43,1.02,1.89,1.77s.68,1.61,.68,2.57-.23,1.82-.68,2.57-1.09,1.35-1.89,1.77c-.8,.43-1.72,.64-2.74,.64s-1.94-.21-2.75-.64Zm4.52-2.39c.46-.49,.69-1.14,.69-1.95s-.23-1.47-.69-1.95-1.05-.73-1.77-.73-1.31,.24-1.78,.73-.7,1.14-.7,1.95,.23,1.47,.7,1.95,1.06,.73,1.78,.73,1.31-.24,1.77-.73Zm14.2-5.86c.74,.72,1.11,1.79,1.11,3.2v5.54h-2.81v-5.11c0-.77-.17-1.34-.5-1.72s-.82-.57-1.46-.57c-.71,0-1.27,.22-1.69,.66-.42,.44-.63,1.09-.63,1.95v4.79h-2.81v-9.68h2.68v1.13c.37-.41,.83-.72,1.39-.95,.55-.22,1.16-.33,1.82-.33,1.2,0,2.17,.36,2.91,1.08Zm-120.24,30.05h-5.85l-1.12,2.7h-2.99l5.62-12.6h2.88l5.63,12.6h-3.06l-1.12-2.7Zm-.92-2.21l-2-4.82-2,4.82h4Zm15.98-8.44v13.36h-2.68v-1.12c-.7,.84-1.7,1.26-3.02,1.26-.91,0-1.74-.21-2.48-.61-.74-.41-1.32-.99-1.74-1.75-.42-.76-.63-1.63-.63-2.63s.21-1.87,.63-2.63c.42-.76,1-1.34,1.74-1.75,.74-.41,1.56-.61,2.48-.61,1.24,0,2.2,.39,2.9,1.17v-4.7h2.81Zm-3.46,10.47c.47-.49,.7-1.14,.7-1.95s-.23-1.47-.7-1.95-1.06-.73-1.76-.73-1.31,.24-1.78,.73-.7,1.14-.7,1.95,.23,1.47,.7,1.95,1.06,.73,1.78,.73,1.3-.24,1.76-.73Zm21.34-5.87c.71,.71,1.07,1.79,1.07,3.21v5.54h-2.81v-5.11c0-.77-.16-1.34-.48-1.72-.32-.38-.77-.57-1.36-.57-.66,0-1.18,.21-1.57,.64-.38,.43-.58,1.06-.58,1.9v4.86h-2.81v-5.11c0-1.52-.61-2.29-1.84-2.29-.65,0-1.16,.21-1.55,.64s-.58,1.06-.58,1.9v4.86h-2.81v-9.68h2.68v1.12c.36-.41,.8-.72,1.32-.94,.52-.22,1.09-.32,1.72-.32,.68,0,1.3,.13,1.85,.41s1,.66,1.33,1.18c.4-.5,.9-.89,1.5-1.17,.61-.28,1.27-.41,1.99-.41,1.21,0,2.17,.36,2.89,1.07Zm3.74-2.73c-.32-.3-.49-.67-.49-1.12s.16-.82,.49-1.12c.32-.3,.74-.45,1.26-.45s.94,.14,1.26,.43c.32,.29,.49,.65,.49,1.08,0,.47-.16,.86-.49,1.16s-.74,.46-1.26,.46-.94-.15-1.26-.45Zm-.14,1.8h2.81v9.68h-2.81v-9.68Zm14.21,.94c.74,.72,1.11,1.79,1.11,3.2v5.54h-2.81v-5.11c0-.77-.17-1.34-.5-1.72s-.82-.57-1.46-.57c-.71,0-1.27,.22-1.69,.66-.42,.44-.63,1.09-.63,1.95v4.79h-2.81v-9.68h2.68v1.13c.37-.41,.83-.72,1.39-.95,.55-.22,1.16-.33,1.82-.33,1.2,0,2.17,.36,2.91,1.08Zm3.79-2.74c-.32-.3-.49-.67-.49-1.12s.16-.82,.49-1.12c.32-.3,.74-.45,1.26-.45s.94,.14,1.26,.43c.32,.29,.49,.65,.49,1.08,0,.47-.16,.86-.49,1.16s-.74,.46-1.26,.46-.94-.15-1.26-.45Zm-.14,1.8h2.81v9.68h-2.81v-9.68Zm6.32,9.53c-.77-.2-1.38-.45-1.84-.75l.94-2.02c.43,.28,.95,.5,1.57,.67,.61,.17,1.21,.26,1.8,.26,1.19,0,1.78-.29,1.78-.88,0-.28-.16-.47-.49-.59s-.82-.22-1.49-.31c-.79-.12-1.45-.26-1.96-.41s-.96-.43-1.34-.83-.57-.96-.57-1.69c0-.61,.18-1.16,.53-1.63,.35-.47,.87-.84,1.55-1.11s1.48-.4,2.4-.4c.68,0,1.36,.08,2.04,.22,.68,.15,1.24,.36,1.68,.62l-.94,2c-.85-.48-1.78-.72-2.79-.72-.6,0-1.05,.08-1.35,.25-.3,.17-.45,.38-.45,.65,0,.3,.16,.51,.49,.63,.32,.12,.84,.23,1.55,.34,.79,.13,1.44,.27,1.94,.42,.5,.15,.94,.42,1.31,.82,.37,.4,.56,.95,.56,1.66,0,.6-.18,1.13-.54,1.6-.36,.47-.88,.83-1.58,1.09-.69,.26-1.51,.39-2.46,.39-.8,0-1.59-.1-2.36-.3Zm14.9-.32c-.28,.2-.62,.36-1.02,.46-.4,.1-.83,.15-1.27,.15-1.15,0-2.04-.29-2.67-.88s-.95-1.45-.95-2.59v-3.98h-1.49v-2.16h1.49v-2.36h2.81v2.36h2.41v2.16h-2.41v3.94c0,.41,.1,.72,.31,.95s.51,.33,.89,.33c.44,0,.82-.12,1.13-.36l.76,1.98Zm5.62-9c.57-.24,1.23-.36,1.97-.36v2.59c-.31-.02-.52-.04-.63-.04-.8,0-1.43,.22-1.89,.67-.46,.45-.68,1.12-.68,2.03v4.57h-2.81v-9.68h2.68v1.28c.34-.47,.79-.82,1.36-1.06Zm10.95,.71c.8,.71,1.21,1.79,1.21,3.23v5.53h-2.63v-1.21c-.53,.9-1.51,1.35-2.95,1.35-.74,0-1.39-.13-1.94-.38s-.96-.6-1.25-1.04c-.29-.44-.43-.95-.43-1.51,0-.9,.34-1.61,1.02-2.12s1.73-.77,3.14-.77h2.23c0-.61-.19-1.08-.56-1.41-.37-.33-.93-.49-1.67-.49-.52,0-1.02,.08-1.52,.24s-.92,.38-1.27,.66l-1.01-1.96c.53-.37,1.16-.66,1.9-.86,.74-.21,1.5-.31,2.28-.31,1.5,0,2.65,.36,3.46,1.07Zm-2.39,6.68c.37-.22,.64-.55,.79-.98v-.99h-1.93c-1.15,0-1.73,.38-1.73,1.13,0,.36,.14,.64,.42,.86,.28,.21,.67,.31,1.16,.31s.91-.11,1.28-.33Zm12.38,1.61c-.28,.2-.62,.36-1.02,.46-.4,.1-.83,.15-1.27,.15-1.15,0-2.04-.29-2.67-.88s-.95-1.45-.95-2.59v-3.98h-1.49v-2.16h1.49v-2.36h2.81v2.36h2.41v2.16h-2.41v3.94c0,.41,.1,.72,.31,.95s.51,.33,.89,.33c.44,0,.82-.12,1.13-.36l.76,1.98Zm1.73-11.02c-.32-.3-.49-.67-.49-1.12s.16-.82,.49-1.12c.32-.3,.74-.45,1.26-.45s.94,.14,1.26,.43c.32,.29,.49,.65,.49,1.08,0,.47-.16,.86-.49,1.16s-.74,.46-1.26,.46-.94-.15-1.26-.45Zm-.14,1.8h2.81v9.68h-2.81v-9.68Zm7.28,9.19c-.81-.43-1.44-1.02-1.9-1.77s-.68-1.61-.68-2.57,.23-1.82,.68-2.57,1.09-1.35,1.9-1.77c.81-.43,1.72-.64,2.75-.64s1.93,.21,2.74,.64c.8,.43,1.43,1.02,1.89,1.77s.68,1.61,.68,2.57-.23,1.82-.68,2.57-1.09,1.35-1.89,1.77c-.8,.43-1.72,.64-2.74,.64s-1.94-.21-2.75-.64Zm4.52-2.39c.46-.49,.69-1.14,.69-1.95s-.23-1.47-.69-1.95-1.05-.73-1.77-.73-1.31,.24-1.78,.73-.7,1.14-.7,1.95,.23,1.47,.7,1.95,1.06,.73,1.78,.73,1.31-.24,1.77-.73Zm14.2-5.86c.74,.72,1.11,1.79,1.11,3.2v5.54h-2.81v-5.11c0-.77-.17-1.34-.5-1.72s-.82-.57-1.46-.57c-.71,0-1.27,.22-1.69,.66-.42,.44-.63,1.09-.63,1.95v4.79h-2.81v-9.68h2.68v1.13c.37-.41,.83-.72,1.39-.95,.55-.22,1.16-.33,1.82-.33,1.2,0,2.17,.36,2.91,1.08Z"/>
    </g>
    <path id="DDD_Label" data-name="Dot-Dot-Dot" class="cls-24" d="M1088.95,578.81c-.34-.34-.5-.76-.5-1.26s.17-.93,.5-1.25,.75-.48,1.24-.48,.91,.16,1.24,.48,.5,.74,.5,1.25-.17,.92-.5,1.26-.75,.5-1.24,.5-.91-.17-1.24-.5Zm9.81,0c-.34-.34-.5-.76-.5-1.26s.17-.93,.5-1.25,.75-.48,1.24-.48,.91,.16,1.24,.48,.5,.74,.5,1.25-.17,.92-.5,1.26-.75,.5-1.24,.5-.91-.17-1.24-.5Zm9.81,0c-.34-.34-.5-.76-.5-1.26s.17-.93,.5-1.25,.75-.48,1.24-.48,.91,.16,1.24,.48,.5,.74,.5,1.25-.17,.92-.5,1.26-.75,.5-1.24,.5-.91-.17-1.24-.5Z"/>
    <path id="Tech_Label" data-name="Technology" class="cls-62" d="M1092.4,351.94h-4.03v-2.38h10.98v2.38h-4.03v10.22h-2.92v-10.22Zm16.76,6.17h-7.33c.13,.6,.44,1.07,.94,1.42s1.1,.52,1.84,.52c.5,0,.95-.07,1.34-.23,.39-.15,.75-.39,1.09-.71l1.49,1.62c-.91,1.04-2.24,1.57-4,1.57-1.09,0-2.06-.21-2.9-.64-.84-.43-1.49-1.02-1.94-1.77s-.68-1.61-.68-2.57,.22-1.8,.67-2.57c.45-.76,1.07-1.36,1.85-1.78,.79-.43,1.66-.64,2.64-.64s1.81,.2,2.57,.61c.77,.41,1.37,.99,1.81,1.75,.44,.76,.66,1.65,.66,2.65,0,.04-.02,.29-.05,.76Zm-6.57-3.11c-.43,.36-.7,.85-.79,1.48h4.77c-.1-.61-.36-1.1-.79-1.47-.43-.37-.96-.55-1.58-.55s-1.17,.18-1.6,.54Zm10.4,6.67c-.82-.43-1.46-1.02-1.93-1.77s-.69-1.61-.69-2.57,.23-1.82,.69-2.57,1.1-1.35,1.93-1.77c.82-.43,1.75-.64,2.78-.64s1.91,.21,2.67,.64c.76,.43,1.32,1.04,1.67,1.83l-2.18,1.17c-.5-.89-1.23-1.33-2.18-1.33-.73,0-1.34,.24-1.82,.72-.48,.48-.72,1.13-.72,1.96s.24,1.48,.72,1.96c.48,.48,1.09,.72,1.82,.72,.96,0,1.69-.44,2.18-1.33l2.18,1.19c-.35,.77-.9,1.37-1.67,1.8-.76,.43-1.65,.65-2.67,.65s-1.96-.21-2.78-.64Zm17.46-8.25c.74,.72,1.11,1.79,1.11,3.2v5.54h-2.81v-5.11c0-.77-.17-1.34-.5-1.72s-.82-.57-1.46-.57c-.71,0-1.27,.22-1.69,.66-.42,.44-.63,1.09-.63,1.95v4.79h-2.81v-13.36h2.81v4.68c.37-.37,.82-.66,1.35-.85,.53-.2,1.1-.3,1.73-.3,1.2,0,2.17,.36,2.91,1.08Zm12.44,0c.74,.72,1.11,1.79,1.11,3.2v5.54h-2.81v-5.11c0-.77-.17-1.34-.5-1.72s-.82-.57-1.46-.57c-.71,0-1.27,.22-1.69,.66-.42,.44-.63,1.09-.63,1.95v4.79h-2.81v-9.68h2.68v1.13c.37-.41,.83-.72,1.39-.95,.55-.22,1.16-.33,1.82-.33,1.2,0,2.17,.36,2.91,1.08Zm5.62,8.25c-.81-.43-1.44-1.02-1.9-1.77s-.68-1.61-.68-2.57,.23-1.82,.68-2.57,1.09-1.35,1.9-1.77c.81-.43,1.72-.64,2.75-.64s1.93,.21,2.74,.64c.8,.43,1.43,1.02,1.89,1.77s.68,1.61,.68,2.57-.23,1.82-.68,2.57-1.09,1.35-1.89,1.77c-.8,.43-1.72,.64-2.74,.64s-1.94-.21-2.75-.64Zm4.52-2.39c.46-.49,.69-1.14,.69-1.95s-.23-1.47-.69-1.95-1.05-.73-1.77-.73-1.31,.24-1.78,.73-.7,1.14-.7,1.95,.23,1.47,.7,1.95c.47,.49,1.06,.73,1.78,.73s1.31-.24,1.77-.73Zm5.41-10.47h2.81v13.36h-2.81v-13.36Zm7.28,12.86c-.81-.43-1.44-1.02-1.9-1.77s-.68-1.61-.68-2.57,.23-1.82,.68-2.57,1.09-1.35,1.9-1.77c.81-.43,1.72-.64,2.75-.64s1.93,.21,2.74,.64c.8,.43,1.43,1.02,1.89,1.77s.68,1.61,.68,2.57-.23,1.82-.68,2.57-1.09,1.35-1.89,1.77c-.8,.43-1.72,.64-2.74,.64s-1.94-.21-2.75-.64Zm4.52-2.39c.46-.49,.69-1.14,.69-1.95s-.23-1.47-.69-1.95-1.05-.73-1.77-.73-1.31,.24-1.78,.73-.7,1.14-.7,1.95,.23,1.47,.7,1.95c.47,.49,1.06,.73,1.78,.73s1.31-.24,1.77-.73Zm15.4-6.79v8.06c0,1.78-.46,3.1-1.39,3.96-.92,.86-2.27,1.3-4.05,1.3-.94,0-1.82-.11-2.66-.34s-1.54-.56-2.09-.99l1.12-2.02c.41,.34,.92,.6,1.55,.8,.62,.2,1.25,.3,1.87,.3,.97,0,1.69-.22,2.15-.66s.69-1.1,.69-1.99v-.41c-.73,.8-1.75,1.21-3.06,1.21-.89,0-1.7-.2-2.44-.59-.74-.39-1.32-.94-1.75-1.65-.43-.71-.65-1.52-.65-2.45s.22-1.74,.65-2.45c.43-.71,1.02-1.26,1.75-1.65,.74-.39,1.55-.58,2.44-.58,1.4,0,2.47,.46,3.2,1.39v-1.24h2.66Zm-3.48,6.25c.47-.44,.71-1.01,.71-1.72s-.24-1.28-.71-1.72c-.47-.44-1.08-.66-1.83-.66s-1.36,.22-1.84,.66c-.48,.44-.72,1.01-.72,1.72s.24,1.28,.72,1.72c.48,.44,1.09,.66,1.84,.66s1.35-.22,1.83-.66Zm15.71-6.25l-4.37,10.28c-.44,1.12-.99,1.9-1.65,2.36-.65,.46-1.44,.68-2.37,.68-.5,0-1-.08-1.49-.23-.49-.16-.89-.37-1.21-.65l1.03-2c.22,.19,.46,.34,.75,.45s.56,.16,.84,.16c.38,0,.7-.09,.94-.28,.24-.19,.46-.49,.65-.93l.04-.09-4.19-9.76h2.9l2.72,6.57,2.74-6.57h2.7Z"/>
    <path id="Innovation_Label" data-name="Innovation" class="cls-57" d="M974.78,129.57h2.92v12.6h-2.92v-12.6Zm14.5,3.85c.74,.72,1.11,1.79,1.11,3.2v5.54h-2.81v-5.11c0-.77-.17-1.34-.5-1.72s-.82-.57-1.46-.57c-.71,0-1.27,.22-1.69,.66-.42,.44-.63,1.09-.63,1.95v4.79h-2.81v-9.68h2.68v1.13c.37-.41,.83-.72,1.39-.95,.55-.22,1.16-.33,1.82-.33,1.2,0,2.17,.36,2.91,1.08Zm12.44,0c.74,.72,1.11,1.79,1.11,3.2v5.54h-2.81v-5.11c0-.77-.17-1.34-.5-1.72s-.82-.57-1.46-.57c-.71,0-1.27,.22-1.69,.66-.42,.44-.63,1.09-.63,1.95v4.79h-2.81v-9.68h2.68v1.13c.37-.41,.83-.72,1.39-.95,.55-.22,1.16-.33,1.82-.33,1.2,0,2.17,.36,2.91,1.08Zm5.62,8.25c-.81-.43-1.44-1.02-1.9-1.77s-.68-1.61-.68-2.57,.23-1.82,.68-2.57,1.09-1.35,1.9-1.77c.81-.43,1.72-.64,2.75-.64s1.93,.21,2.74,.64c.8,.43,1.43,1.02,1.89,1.77s.68,1.61,.68,2.57-.23,1.82-.68,2.57-1.09,1.35-1.89,1.77c-.8,.43-1.72,.64-2.74,.64s-1.94-.21-2.75-.64Zm4.52-2.39c.46-.49,.69-1.14,.69-1.95s-.23-1.47-.69-1.95-1.05-.73-1.77-.73-1.31,.24-1.78,.73-.7,1.14-.7,1.95,.23,1.47,.7,1.95c.47,.49,1.06,.73,1.78,.73s1.31-.24,1.77-.73Zm14.75-6.79l-4.09,9.68h-2.9l-4.07-9.68h2.9l2.68,6.59,2.77-6.59h2.7Zm8.19,.93c.8,.71,1.21,1.79,1.21,3.23v5.53h-2.63v-1.21c-.53,.9-1.51,1.35-2.95,1.35-.74,0-1.39-.13-1.94-.38s-.96-.6-1.25-1.04-.43-.95-.43-1.51c0-.9,.34-1.61,1.02-2.12,.68-.52,1.73-.77,3.14-.77h2.23c0-.61-.19-1.08-.56-1.41-.37-.33-.93-.5-1.67-.5-.52,0-1.02,.08-1.52,.24s-.92,.38-1.27,.66l-1.01-1.96c.53-.37,1.16-.66,1.9-.86s1.5-.31,2.28-.31c1.5,0,2.65,.36,3.46,1.07Zm-2.39,6.68c.37-.22,.64-.55,.79-.98v-.99h-1.93c-1.15,0-1.73,.38-1.73,1.13,0,.36,.14,.65,.42,.85,.28,.21,.67,.31,1.16,.31s.91-.11,1.28-.33Zm12.38,1.61c-.28,.2-.62,.36-1.02,.46-.4,.1-.83,.15-1.27,.15-1.15,0-2.04-.29-2.67-.88s-.95-1.45-.95-2.59v-3.98h-1.49v-2.16h1.49v-2.36h2.81v2.36h2.41v2.16h-2.41v3.94c0,.41,.1,.72,.31,.95s.51,.33,.89,.33c.44,0,.82-.12,1.13-.36l.76,1.98Zm1.73-11.02c-.32-.3-.49-.67-.49-1.12s.16-.82,.49-1.12c.32-.3,.74-.45,1.26-.45s.94,.14,1.26,.43,.49,.65,.49,1.08c0,.47-.16,.85-.49,1.16-.32,.31-.74,.46-1.26,.46s-.94-.15-1.26-.45Zm-.14,1.8h2.81v9.68h-2.81v-9.68Zm7.28,9.19c-.81-.43-1.44-1.02-1.9-1.77s-.68-1.61-.68-2.57,.23-1.82,.68-2.57,1.09-1.35,1.9-1.77c.81-.43,1.72-.64,2.75-.64s1.93,.21,2.74,.64c.8,.43,1.43,1.02,1.89,1.77s.68,1.61,.68,2.57-.23,1.82-.68,2.57-1.09,1.35-1.89,1.77c-.8,.43-1.72,.64-2.74,.64s-1.94-.21-2.75-.64Zm4.52-2.39c.46-.49,.69-1.14,.69-1.95s-.23-1.47-.69-1.95-1.05-.73-1.77-.73-1.31,.24-1.78,.73-.7,1.14-.7,1.95,.23,1.47,.7,1.95c.47,.49,1.06,.73,1.78,.73s1.31-.24,1.77-.73Zm14.2-5.86c.74,.72,1.11,1.79,1.11,3.2v5.54h-2.81v-5.11c0-.77-.17-1.34-.5-1.72s-.82-.57-1.46-.57c-.71,0-1.27,.22-1.69,.66-.42,.44-.63,1.09-.63,1.95v4.79h-2.81v-9.68h2.68v1.13c.37-.41,.83-.72,1.39-.95,.55-.22,1.16-.33,1.82-.33,1.2,0,2.17,.36,2.91,1.08Z"/>
    <path id="Finance_Label" data-name="Finance" class="cls-21" d="M749.06,3.91v3.33h5.83v2.34h-5.83v4.59h-2.92V1.57h9.52V3.91h-6.61Zm8.35-1.22c-.32-.3-.49-.67-.49-1.12s.16-.82,.49-1.12c.32-.3,.74-.45,1.26-.45s.94,.14,1.26,.43,.49,.65,.49,1.08c0,.47-.16,.85-.49,1.16-.32,.31-.74,.46-1.26,.46s-.94-.15-1.26-.45Zm-.14,1.8h2.81V14.17h-2.81V4.48Zm14.21,.94c.74,.72,1.11,1.79,1.11,3.2v5.54h-2.81v-5.11c0-.77-.17-1.34-.5-1.72s-.82-.57-1.46-.57c-.71,0-1.27,.22-1.69,.66-.42,.44-.63,1.09-.63,1.95v4.79h-2.81V4.48h2.68v1.13c.37-.41,.83-.72,1.39-.95,.55-.22,1.16-.33,1.82-.33,1.2,0,2.17,.36,2.91,1.08Zm11.01,0c.8,.71,1.21,1.79,1.21,3.23v5.53h-2.63v-1.21c-.53,.9-1.51,1.35-2.95,1.35-.74,0-1.39-.13-1.94-.38s-.96-.6-1.25-1.04-.43-.95-.43-1.51c0-.9,.34-1.61,1.02-2.12,.68-.52,1.73-.77,3.14-.77h2.23c0-.61-.19-1.08-.56-1.41-.37-.33-.93-.5-1.67-.5-.52,0-1.02,.08-1.52,.24s-.92,.38-1.27,.66l-1.01-1.96c.53-.37,1.16-.66,1.9-.86s1.5-.31,2.28-.31c1.5,0,2.65,.36,3.46,1.07Zm-2.39,6.68c.37-.22,.64-.55,.79-.98v-.99h-1.93c-1.15,0-1.73,.38-1.73,1.13,0,.36,.14,.65,.42,.85,.28,.21,.67,.31,1.16,.31s.91-.11,1.28-.33Zm14.93-6.67c.74,.72,1.11,1.79,1.11,3.2v5.54h-2.81v-5.11c0-.77-.17-1.34-.5-1.72s-.82-.57-1.46-.57c-.71,0-1.27,.22-1.69,.66-.42,.44-.63,1.09-.63,1.95v4.79h-2.81V4.48h2.68v1.13c.37-.41,.83-.72,1.39-.95,.55-.22,1.16-.33,1.82-.33,1.2,0,2.17,.36,2.91,1.08Zm5.65,8.25c-.82-.43-1.46-1.02-1.93-1.77s-.69-1.61-.69-2.57,.23-1.82,.69-2.57,1.1-1.35,1.93-1.77c.82-.43,1.75-.64,2.78-.64s1.91,.21,2.67,.64c.76,.43,1.32,1.04,1.67,1.83l-2.18,1.17c-.5-.89-1.23-1.33-2.18-1.33-.73,0-1.34,.24-1.82,.72-.48,.48-.72,1.13-.72,1.96s.24,1.48,.72,1.96c.48,.48,1.09,.72,1.82,.72,.96,0,1.69-.44,2.18-1.33l2.18,1.19c-.35,.77-.9,1.37-1.67,1.8-.76,.43-1.65,.65-2.67,.65s-1.96-.21-2.78-.64Zm18.04-3.55h-7.33c.13,.6,.44,1.07,.94,1.42s1.1,.52,1.84,.52c.5,0,.95-.07,1.34-.23,.39-.15,.75-.39,1.09-.71l1.49,1.62c-.91,1.04-2.24,1.57-4,1.57-1.09,0-2.06-.21-2.9-.64-.84-.43-1.49-1.02-1.94-1.77s-.68-1.61-.68-2.57,.22-1.8,.67-2.57c.45-.76,1.07-1.36,1.85-1.78,.79-.43,1.66-.64,2.64-.64s1.81,.2,2.57,.61c.77,.41,1.37,.99,1.81,1.75,.44,.76,.66,1.65,.66,2.65,0,.04-.02,.29-.05,.76Zm-6.57-3.11c-.43,.36-.7,.85-.79,1.48h4.77c-.1-.61-.36-1.1-.79-1.47-.43-.37-.96-.55-1.58-.55s-1.17,.18-1.6,.54Z"/>
    <path id="Operations_Label" data-name="Operations" class="cls-5" d="M423.69,13.54c-1.05-.56-1.87-1.34-2.47-2.33-.59-.99-.89-2.1-.89-3.34s.3-2.35,.89-3.34c.59-.99,1.42-1.77,2.47-2.33,1.05-.56,2.23-.85,3.54-.85s2.48,.28,3.53,.85c1.04,.56,1.87,1.34,2.47,2.33,.6,.99,.9,2.1,.9,3.34s-.3,2.35-.9,3.34c-.6,.99-1.42,1.77-2.47,2.33s-2.22,.85-3.53,.85-2.49-.28-3.54-.85Zm5.55-2.15c.6-.34,1.07-.82,1.41-1.43,.34-.61,.51-1.31,.51-2.09s-.17-1.48-.51-2.09c-.34-.61-.81-1.09-1.41-1.43-.6-.34-1.27-.51-2.02-.51s-1.42,.17-2.02,.51c-.6,.34-1.07,.82-1.41,1.43-.34,.61-.51,1.31-.51,2.09s.17,1.48,.51,2.09c.34,.61,.81,1.09,1.41,1.43,.6,.34,1.27,.51,2.02,.51s1.42-.17,2.02-.51Zm15.06-6.43c.74,.41,1.32,1,1.74,1.75s.63,1.62,.63,2.62-.21,1.87-.63,2.62c-.42,.75-1,1.33-1.74,1.75-.74,.41-1.56,.62-2.46,.62-1.24,0-2.21-.39-2.92-1.17v4.52h-2.81V4.48h2.68v1.12c.7-.84,1.71-1.26,3.04-1.26,.9,0,1.72,.21,2.46,.62Zm-1.17,6.32c.46-.49,.69-1.14,.69-1.95s-.23-1.47-.69-1.95-1.05-.73-1.77-.73-1.31,.24-1.77,.73-.69,1.14-.69,1.95,.23,1.47,.69,1.95c.46,.49,1.05,.73,1.77,.73s1.31-.24,1.77-.73Zm14.84-1.16h-7.33c.13,.6,.44,1.07,.94,1.42s1.1,.52,1.84,.52c.5,0,.95-.07,1.34-.23,.39-.15,.75-.39,1.09-.71l1.49,1.62c-.91,1.04-2.24,1.57-4,1.57-1.09,0-2.06-.21-2.9-.64-.84-.43-1.49-1.02-1.94-1.77s-.68-1.61-.68-2.57,.22-1.8,.67-2.57c.45-.76,1.07-1.36,1.85-1.78,.79-.43,1.66-.64,2.64-.64s1.81,.2,2.57,.61c.77,.41,1.37,.99,1.81,1.75,.44,.76,.66,1.65,.66,2.65,0,.04-.02,.29-.05,.76Zm-6.57-3.11c-.43,.36-.7,.85-.79,1.48h4.77c-.1-.61-.36-1.1-.79-1.47-.43-.37-.96-.55-1.58-.55s-1.17,.18-1.6,.54Zm12.54-2.3c.57-.24,1.23-.36,1.97-.36v2.59c-.31-.02-.52-.04-.63-.04-.8,0-1.43,.23-1.89,.67-.46,.45-.68,1.12-.68,2.03v4.57h-2.81V4.48h2.68v1.28c.34-.47,.79-.82,1.36-1.06Zm10.95,.71c.8,.71,1.21,1.79,1.21,3.23v5.53h-2.63v-1.21c-.53,.9-1.51,1.35-2.95,1.35-.74,0-1.39-.13-1.94-.38s-.96-.6-1.25-1.04-.43-.95-.43-1.51c0-.9,.34-1.61,1.02-2.12,.68-.52,1.73-.77,3.14-.77h2.23c0-.61-.19-1.08-.56-1.41-.37-.33-.93-.5-1.67-.5-.52,0-1.02,.08-1.52,.24s-.92,.38-1.27,.66l-1.01-1.96c.53-.37,1.16-.66,1.9-.86s1.5-.31,2.28-.31c1.5,0,2.65,.36,3.46,1.07Zm-2.39,6.68c.37-.22,.64-.55,.79-.98v-.99h-1.93c-1.15,0-1.73,.38-1.73,1.13,0,.36,.14,.65,.42,.85,.28,.21,.67,.31,1.16,.31s.91-.11,1.28-.33Zm12.38,1.61c-.28,.2-.62,.36-1.02,.46-.4,.1-.83,.15-1.27,.15-1.15,0-2.04-.29-2.67-.88s-.95-1.45-.95-2.59v-3.98h-1.49v-2.16h1.49V2.34h2.81v2.36h2.41v2.16h-2.41v3.94c0,.41,.1,.72,.31,.95s.51,.33,.89,.33c.44,0,.82-.12,1.13-.36l.76,1.98Zm1.73-11.02c-.32-.3-.49-.67-.49-1.12s.16-.82,.49-1.12c.32-.3,.74-.45,1.26-.45s.94,.14,1.26,.43,.49,.65,.49,1.08c0,.47-.16,.85-.49,1.16-.32,.31-.74,.46-1.26,.46s-.94-.15-1.26-.45Zm-.14,1.8h2.81V14.17h-2.81V4.48Zm7.28,9.19c-.81-.43-1.44-1.02-1.9-1.77s-.68-1.61-.68-2.57,.23-1.82,.68-2.57,1.09-1.35,1.9-1.77c.81-.43,1.72-.64,2.75-.64s1.93,.21,2.74,.64c.8,.43,1.43,1.02,1.89,1.77s.68,1.61,.68,2.57-.23,1.82-.68,2.57-1.09,1.35-1.89,1.77c-.8,.43-1.72,.64-2.74,.64s-1.94-.21-2.75-.64Zm4.52-2.39c.46-.49,.69-1.14,.69-1.95s-.23-1.47-.69-1.95-1.05-.73-1.77-.73-1.31,.24-1.78,.73-.7,1.14-.7,1.95,.23,1.47,.7,1.95c.47,.49,1.06,.73,1.78,.73s1.31-.24,1.77-.73Zm14.2-5.86c.74,.72,1.11,1.79,1.11,3.2v5.54h-2.81v-5.11c0-.77-.17-1.34-.5-1.72s-.82-.57-1.46-.57c-.71,0-1.27,.22-1.69,.66-.42,.44-.63,1.09-.63,1.95v4.79h-2.81V4.48h2.68v1.13c.37-.41,.83-.72,1.39-.95,.55-.22,1.16-.33,1.82-.33,1.2,0,2.17,.36,2.91,1.08Zm4.54,8.6c-.77-.2-1.38-.45-1.84-.75l.94-2.02c.43,.28,.95,.5,1.57,.67,.61,.17,1.21,.26,1.8,.26,1.19,0,1.78-.29,1.78-.88,0-.28-.16-.47-.49-.59-.32-.12-.82-.22-1.49-.31-.79-.12-1.45-.26-1.96-.41-.52-.16-.96-.43-1.34-.83s-.57-.96-.57-1.69c0-.61,.18-1.15,.53-1.63,.35-.47,.87-.84,1.55-1.11,.68-.26,1.48-.4,2.4-.4,.68,0,1.36,.08,2.04,.23,.68,.15,1.24,.36,1.68,.62l-.94,2c-.85-.48-1.78-.72-2.79-.72-.6,0-1.05,.08-1.35,.25-.3,.17-.45,.38-.45,.65,0,.3,.16,.51,.49,.63,.32,.12,.84,.23,1.55,.34,.79,.13,1.44,.27,1.94,.42,.5,.15,.94,.42,1.31,.82,.37,.4,.56,.95,.56,1.66,0,.6-.18,1.13-.54,1.6-.36,.47-.88,.83-1.58,1.09-.69,.26-1.51,.39-2.46,.39-.8,0-1.59-.1-2.36-.3Z"/>
    <path id="Our_People_Label" data-name="Our-People" class="cls-80" d="M189.19,141.54c-1.05-.56-1.87-1.34-2.47-2.33-.59-.99-.89-2.1-.89-3.34s.3-2.35,.89-3.34c.59-.99,1.42-1.77,2.47-2.33,1.05-.56,2.23-.85,3.54-.85s2.48,.28,3.53,.85c1.04,.56,1.87,1.34,2.47,2.33,.6,.99,.9,2.1,.9,3.34s-.3,2.35-.9,3.34c-.6,.99-1.42,1.77-2.47,2.33s-2.22,.85-3.53,.85-2.49-.28-3.54-.85Zm5.55-2.15c.6-.34,1.07-.82,1.41-1.43,.34-.61,.51-1.31,.51-2.09s-.17-1.48-.51-2.09c-.34-.61-.81-1.09-1.41-1.43-.6-.34-1.27-.51-2.02-.51s-1.42,.17-2.02,.51c-.6,.34-1.07,.82-1.41,1.43-.34,.61-.51,1.31-.51,2.09s.17,1.48,.51,2.09c.34,.61,.81,1.09,1.41,1.43,.6,.34,1.27,.51,2.02,.51s1.42-.17,2.02-.51Zm16.63-6.9v9.68h-2.66v-1.15c-.37,.42-.82,.74-1.33,.96-.52,.22-1.07,.33-1.67,.33-1.27,0-2.28-.37-3.02-1.1-.74-.73-1.12-1.82-1.12-3.26v-5.47h2.81v5.06c0,1.56,.65,2.34,1.96,2.34,.67,0,1.21-.22,1.62-.66s.61-1.09,.61-1.95v-4.79h2.81Zm6.65,.22c.57-.24,1.23-.36,1.97-.36v2.59c-.31-.02-.52-.04-.63-.04-.8,0-1.43,.23-1.89,.67-.46,.45-.68,1.12-.68,2.03v4.57h-2.81v-9.68h2.68v1.28c.34-.47,.79-.82,1.36-1.06Zm17.37-2.57c.82,.37,1.45,.9,1.9,1.58s.67,1.49,.67,2.43-.22,1.73-.67,2.42-1.08,1.22-1.9,1.58c-.82,.37-1.79,.55-2.91,.55h-2.54v3.47h-2.92v-12.6h5.45c1.12,0,2.08,.19,2.91,.56Zm-1.07,5.62c.46-.38,.68-.92,.68-1.61s-.23-1.25-.68-1.63c-.46-.38-1.12-.57-2-.57h-2.38v4.37h2.38c.88,0,1.54-.19,2-.57Zm14.92,2.37h-7.33c.13,.6,.44,1.07,.94,1.42,.49,.35,1.1,.52,1.84,.52,.5,0,.95-.07,1.34-.23,.39-.15,.75-.39,1.09-.71l1.49,1.62c-.91,1.04-2.24,1.57-4,1.57-1.09,0-2.06-.21-2.9-.64-.84-.43-1.49-1.02-1.94-1.77s-.68-1.61-.68-2.57,.22-1.8,.67-2.57c.45-.76,1.07-1.36,1.85-1.78,.79-.43,1.66-.64,2.64-.64s1.81,.2,2.57,.61c.77,.41,1.37,.99,1.81,1.75,.44,.76,.66,1.65,.66,2.65,0,.04-.02,.29-.05,.76Zm-6.57-3.11c-.43,.36-.7,.85-.79,1.48h4.77c-.1-.61-.36-1.1-.79-1.47-.43-.37-.96-.55-1.58-.55s-1.17,.18-1.6,.54Zm10.36,6.67c-.81-.43-1.44-1.02-1.9-1.77s-.68-1.61-.68-2.57,.23-1.82,.68-2.57,1.09-1.35,1.9-1.77c.81-.43,1.72-.64,2.75-.64s1.93,.21,2.74,.64c.8,.43,1.43,1.02,1.89,1.77s.68,1.61,.68,2.57-.23,1.82-.68,2.57-1.09,1.35-1.89,1.77c-.8,.43-1.72,.64-2.74,.64s-1.94-.21-2.75-.64Zm4.52-2.39c.46-.49,.69-1.14,.69-1.95s-.23-1.47-.69-1.95-1.05-.73-1.77-.73-1.31,.24-1.78,.73-.7,1.14-.7,1.95,.23,1.47,.7,1.95c.47,.49,1.06,.73,1.78,.73s1.31-.24,1.77-.73Zm13.59-6.32c.74,.41,1.32,1,1.74,1.75s.63,1.62,.63,2.62-.21,1.87-.63,2.62c-.42,.75-1,1.33-1.74,1.75-.74,.41-1.56,.62-2.46,.62-1.24,0-2.21-.39-2.92-1.17v4.52h-2.81v-13.18h2.68v1.12c.7-.84,1.71-1.26,3.04-1.26,.9,0,1.72,.21,2.46,.62Zm-1.17,6.32c.46-.49,.69-1.14,.69-1.95s-.23-1.47-.69-1.95c-.46-.49-1.05-.73-1.77-.73s-1.31,.24-1.77,.73-.69,1.14-.69,1.95,.23,1.47,.69,1.95c.46,.49,1.05,.73,1.77,.73s1.31-.24,1.77-.73Zm5.41-10.47h2.81v13.36h-2.81v-13.36Zm14.85,9.31h-7.33c.13,.6,.44,1.07,.94,1.42s1.1,.52,1.84,.52c.5,0,.95-.07,1.34-.23,.39-.15,.75-.39,1.09-.71l1.49,1.62c-.91,1.04-2.24,1.57-4,1.57-1.09,0-2.06-.21-2.9-.64-.84-.43-1.49-1.02-1.94-1.77s-.68-1.61-.68-2.57,.22-1.8,.67-2.57c.45-.76,1.07-1.36,1.85-1.78,.79-.43,1.66-.64,2.64-.64s1.81,.2,2.57,.61c.77,.41,1.37,.99,1.81,1.75,.44,.76,.66,1.65,.66,2.65,0,.04-.02,.29-.05,.76Zm-6.57-3.11c-.43,.36-.7,.85-.79,1.48h4.77c-.1-.61-.36-1.1-.79-1.47-.43-.37-.96-.55-1.58-.55s-1.17,.18-1.6,.54Z"/>
    <path id="Marketing_Label" class="cls-13" d="M36.42,362.17l-.02-7.56-3.71,6.23h-1.31l-3.69-6.07v7.4h-2.74v-12.6h2.41l4.72,7.83,4.64-7.83h2.39l.04,12.6h-2.74Zm12.89-8.76c.8,.71,1.21,1.79,1.21,3.23v5.53h-2.63v-1.21c-.53,.9-1.51,1.35-2.95,1.35-.74,0-1.39-.13-1.94-.38s-.96-.6-1.25-1.04-.43-.95-.43-1.51c0-.9,.34-1.61,1.02-2.12,.68-.52,1.73-.77,3.14-.77h2.23c0-.61-.19-1.08-.56-1.41-.37-.33-.93-.5-1.67-.5-.52,0-1.02,.08-1.52,.24s-.92,.38-1.27,.66l-1.01-1.96c.53-.37,1.16-.66,1.9-.86s1.5-.31,2.28-.31c1.5,0,2.65,.36,3.46,1.07Zm-2.39,6.68c.37-.22,.64-.55,.79-.98v-.99h-1.93c-1.15,0-1.73,.38-1.73,1.13,0,.36,.14,.65,.42,.85,.28,.21,.67,.31,1.16,.31s.91-.11,1.28-.33Zm10.18-7.39c.57-.24,1.23-.36,1.97-.36v2.59c-.31-.02-.52-.04-.63-.04-.8,0-1.43,.23-1.89,.67-.46,.45-.68,1.12-.68,2.03v4.57h-2.81v-9.68h2.68v1.28c.34-.47,.79-.82,1.36-1.06Zm7.8,5.67l-1.35,1.33v2.47h-2.81v-13.36h2.81v7.56l4.1-3.89h3.35l-4.03,4.1,4.39,5.58h-3.4l-3.06-3.8Zm16.74-.25h-7.33c.13,.6,.44,1.07,.94,1.42s1.1,.52,1.84,.52c.5,0,.95-.07,1.34-.23,.39-.15,.75-.39,1.09-.71l1.49,1.62c-.91,1.04-2.24,1.57-4,1.57-1.09,0-2.06-.21-2.9-.64-.84-.43-1.49-1.02-1.94-1.77s-.68-1.61-.68-2.57,.22-1.8,.67-2.57c.45-.76,1.07-1.36,1.85-1.78,.79-.43,1.66-.64,2.64-.64s1.81,.2,2.57,.61c.77,.41,1.37,.99,1.81,1.75,.44,.76,.66,1.65,.66,2.65,0,.04-.02,.29-.05,.76Zm-6.57-3.11c-.43,.36-.7,.85-.79,1.48h4.77c-.1-.61-.36-1.1-.79-1.47-.43-.37-.96-.55-1.58-.55s-1.17,.18-1.6,.54Zm14.74,6.7c-.28,.2-.62,.36-1.02,.46-.4,.1-.83,.15-1.27,.15-1.15,0-2.04-.29-2.67-.88s-.95-1.45-.95-2.59v-3.98h-1.49v-2.16h1.49v-2.36h2.81v2.36h2.41v2.16h-2.41v3.94c0,.41,.1,.72,.31,.95s.51,.33,.89,.33c.44,0,.82-.12,1.13-.36l.76,1.98Zm1.73-11.02c-.32-.3-.49-.67-.49-1.12s.16-.82,.49-1.12c.32-.3,.74-.45,1.26-.45s.94,.14,1.26,.43,.49,.65,.49,1.08c0,.47-.16,.85-.49,1.16-.32,.31-.74,.46-1.26,.46s-.94-.15-1.26-.45Zm-.14,1.8h2.81v9.68h-2.81v-9.68Zm14.21,.94c.74,.72,1.11,1.79,1.11,3.2v5.54h-2.81v-5.11c0-.77-.17-1.34-.5-1.72s-.82-.57-1.46-.57c-.71,0-1.27,.22-1.69,.66-.42,.44-.63,1.09-.63,1.95v4.79h-2.81v-9.68h2.68v1.13c.37-.41,.83-.72,1.39-.95,.55-.22,1.16-.33,1.82-.33,1.2,0,2.17,.36,2.91,1.08Zm13.74-.94v8.06c0,1.78-.46,3.1-1.39,3.96-.92,.86-2.27,1.3-4.05,1.3-.94,0-1.82-.11-2.66-.34s-1.54-.56-2.09-.99l1.12-2.02c.41,.34,.92,.6,1.55,.8,.62,.2,1.25,.3,1.87,.3,.97,0,1.69-.22,2.15-.66s.69-1.1,.69-1.99v-.41c-.73,.8-1.75,1.21-3.06,1.21-.89,0-1.7-.2-2.44-.59-.74-.39-1.32-.94-1.75-1.65-.43-.71-.65-1.52-.65-2.45s.22-1.74,.65-2.45c.43-.71,1.02-1.26,1.75-1.65,.74-.39,1.55-.58,2.44-.58,1.4,0,2.47,.46,3.2,1.39v-1.24h2.66Zm-3.48,6.25c.47-.44,.71-1.01,.71-1.72s-.24-1.28-.71-1.72c-.47-.44-1.08-.66-1.83-.66s-1.36,.22-1.84,.66c-.48,.44-.72,1.01-.72,1.72s.24,1.28,.72,1.72c.48,.44,1.09,.66,1.84,.66s1.35-.22,1.83-.66Zm19.57-1.77h-3.13v3.06h-2.32v-3.06h-3.11v-2.2h3.11v-3.06h2.32v3.06h3.13v2.2ZM3.34,385.54c-1.04-.56-1.85-1.33-2.45-2.32-.59-.99-.89-2.11-.89-3.36s.3-2.37,.89-3.36c.59-.99,1.41-1.76,2.45-2.32s2.21-.84,3.5-.84c1.09,0,2.08,.19,2.96,.58,.88,.38,1.62,.94,2.22,1.66l-1.87,1.73c-.85-.98-1.91-1.48-3.17-1.48-.78,0-1.48,.17-2.09,.51-.61,.34-1.09,.82-1.43,1.43-.34,.61-.51,1.31-.51,2.09s.17,1.48,.51,2.09c.34,.61,.82,1.09,1.43,1.43,.61,.34,1.31,.51,2.09,.51,1.26,0,2.32-.5,3.17-1.49l1.87,1.73c-.6,.73-1.34,1.29-2.23,1.67-.89,.38-1.88,.58-2.97,.58-1.28,0-2.45-.28-3.48-.84Zm11.97,.13c-.81-.43-1.44-1.02-1.9-1.77s-.68-1.61-.68-2.57,.23-1.82,.68-2.57,1.09-1.35,1.9-1.77c.81-.43,1.72-.64,2.75-.64s1.93,.21,2.74,.64c.8,.43,1.43,1.02,1.89,1.77s.68,1.61,.68,2.57-.23,1.82-.68,2.57-1.09,1.35-1.89,1.77c-.8,.43-1.72,.64-2.74,.64s-1.94-.21-2.75-.64Zm4.52-2.39c.46-.49,.69-1.14,.69-1.95s-.23-1.47-.69-1.95-1.05-.73-1.77-.73-1.31,.24-1.78,.73-.7,1.14-.7,1.95,.23,1.47,.7,1.95c.47,.49,1.06,.73,1.78,.73s1.31-.24,1.77-.73Zm20.7-5.87c.71,.71,1.07,1.79,1.07,3.21v5.54h-2.81v-5.11c0-.77-.16-1.34-.48-1.72-.32-.38-.77-.57-1.36-.57-.66,0-1.18,.21-1.57,.64-.38,.43-.58,1.06-.58,1.9v4.86h-2.81v-5.11c0-1.52-.61-2.29-1.84-2.29-.65,0-1.16,.21-1.55,.64s-.58,1.06-.58,1.9v4.86h-2.81v-9.68h2.68v1.12c.36-.41,.8-.72,1.32-.94,.52-.22,1.09-.32,1.72-.32,.68,0,1.3,.14,1.85,.41s1,.66,1.33,1.18c.4-.5,.9-.89,1.5-1.17,.61-.28,1.27-.41,1.99-.41,1.21,0,2.17,.36,2.89,1.07Zm18.88,0c.71,.71,1.07,1.79,1.07,3.21v5.54h-2.81v-5.11c0-.77-.16-1.34-.48-1.72-.32-.38-.77-.57-1.36-.57-.66,0-1.18,.21-1.57,.64-.38,.43-.58,1.06-.58,1.9v4.86h-2.81v-5.11c0-1.52-.61-2.29-1.84-2.29-.65,0-1.16,.21-1.55,.64s-.58,1.06-.58,1.9v4.86h-2.81v-9.68h2.68v1.12c.36-.41,.8-.72,1.32-.94,.52-.22,1.09-.32,1.72-.32,.68,0,1.3,.14,1.85,.41s1,.66,1.33,1.18c.4-.5,.9-.89,1.5-1.17,.61-.28,1.27-.41,1.99-.41,1.21,0,2.17,.36,2.89,1.07Zm13.35-.93v9.68h-2.66v-1.15c-.37,.42-.82,.74-1.33,.96-.52,.22-1.07,.33-1.67,.33-1.27,0-2.28-.37-3.02-1.1-.74-.73-1.12-1.82-1.12-3.26v-5.47h2.81v5.06c0,1.56,.65,2.34,1.96,2.34,.67,0,1.21-.22,1.62-.66s.61-1.09,.61-1.95v-4.79h2.81Zm11.4,.94c.74,.72,1.11,1.79,1.11,3.2v5.54h-2.81v-5.11c0-.77-.17-1.34-.5-1.72s-.82-.57-1.46-.57c-.71,0-1.27,.22-1.69,.66-.42,.44-.63,1.09-.63,1.95v4.79h-2.81v-9.68h2.68v1.13c.37-.41,.83-.72,1.39-.95,.55-.22,1.16-.33,1.82-.33,1.2,0,2.17,.36,2.91,1.08Zm3.79-2.74c-.32-.3-.49-.67-.49-1.12s.16-.82,.49-1.12c.32-.3,.74-.45,1.26-.45s.94,.14,1.26,.43,.49,.65,.49,1.08c0,.47-.16,.85-.49,1.16-.32,.31-.74,.46-1.26,.46s-.94-.15-1.26-.45Zm-.14,1.8h2.81v9.68h-2.81v-9.68Zm7.32,9.19c-.82-.43-1.46-1.02-1.93-1.77s-.69-1.61-.69-2.57,.23-1.82,.69-2.57,1.1-1.35,1.93-1.77c.82-.43,1.75-.64,2.78-.64s1.91,.21,2.67,.64c.76,.43,1.32,1.04,1.67,1.83l-2.18,1.17c-.5-.89-1.23-1.33-2.18-1.33-.73,0-1.34,.24-1.82,.72-.48,.48-.72,1.13-.72,1.96s.24,1.48,.72,1.96c.48,.48,1.09,.72,1.82,.72,.96,0,1.69-.44,2.18-1.33l2.18,1.19c-.35,.77-.9,1.37-1.67,1.8-.76,.43-1.65,.65-2.67,.65s-1.96-.21-2.78-.64Zm16.1-8.26c.8,.71,1.21,1.79,1.21,3.23v5.53h-2.63v-1.21c-.53,.9-1.51,1.35-2.95,1.35-.74,0-1.39-.13-1.94-.38s-.96-.6-1.25-1.04-.43-.95-.43-1.51c0-.9,.34-1.61,1.02-2.12,.68-.52,1.73-.77,3.14-.77h2.23c0-.61-.19-1.08-.56-1.41-.37-.33-.93-.5-1.67-.5-.52,0-1.02,.08-1.52,.24s-.92,.38-1.27,.66l-1.01-1.96c.53-.37,1.16-.66,1.9-.86s1.5-.31,2.28-.31c1.5,0,2.65,.36,3.46,1.07Zm-2.39,6.68c.37-.22,.64-.55,.79-.98v-.99h-1.93c-1.15,0-1.73,.38-1.73,1.13,0,.36,.14,.65,.42,.85,.28,.21,.67,.31,1.16,.31s.91-.11,1.28-.33Zm12.38,1.61c-.28,.2-.62,.36-1.02,.46-.4,.1-.83,.15-1.27,.15-1.15,0-2.04-.29-2.67-.88s-.95-1.45-.95-2.59v-3.98h-1.49v-2.16h1.49v-2.36h2.81v2.36h2.41v2.16h-2.41v3.94c0,.41,.1,.72,.31,.95s.51,.33,.89,.33c.44,0,.82-.12,1.13-.36l.76,1.98Zm1.73-11.02c-.32-.3-.49-.67-.49-1.12s.16-.82,.49-1.12c.32-.3,.74-.45,1.26-.45s.94,.14,1.26,.43,.49,.65,.49,1.08c0,.47-.16,.85-.49,1.16-.32,.31-.74,.46-1.26,.46s-.94-.15-1.26-.45Zm-.14,1.8h2.81v9.68h-2.81v-9.68Zm7.28,9.19c-.81-.43-1.44-1.02-1.9-1.77s-.68-1.61-.68-2.57,.23-1.82,.68-2.57,1.09-1.35,1.9-1.77c.81-.43,1.72-.64,2.75-.64s1.93,.21,2.74,.64c.8,.43,1.43,1.02,1.89,1.77s.68,1.61,.68,2.57-.23,1.82-.68,2.57-1.09,1.35-1.89,1.77c-.8,.43-1.72,.64-2.74,.64s-1.94-.21-2.75-.64Zm4.52-2.39c.46-.49,.69-1.14,.69-1.95s-.23-1.47-.69-1.95-1.05-.73-1.77-.73-1.31,.24-1.78,.73-.7,1.14-.7,1.95,.23,1.47,.7,1.95c.47,.49,1.06,.73,1.78,.73s1.31-.24,1.77-.73Zm14.2-5.86c.74,.72,1.11,1.79,1.11,3.2v5.54h-2.81v-5.11c0-.77-.17-1.34-.5-1.72s-.82-.57-1.46-.57c-.71,0-1.27,.22-1.69,.66-.42,.44-.63,1.09-.63,1.95v4.79h-2.81v-9.68h2.68v1.13c.37-.41,.83-.72,1.39-.95,.55-.22,1.16-.33,1.82-.33,1.2,0,2.17,.36,2.91,1.08Zm4.54,8.6c-.77-.2-1.38-.45-1.84-.75l.94-2.02c.43,.28,.95,.5,1.57,.67,.61,.17,1.21,.26,1.8,.26,1.19,0,1.78-.29,1.78-.88,0-.28-.16-.47-.49-.59-.32-.12-.82-.22-1.49-.31-.79-.12-1.45-.26-1.96-.41-.52-.16-.96-.43-1.34-.83s-.57-.96-.57-1.69c0-.61,.18-1.15,.53-1.63,.35-.47,.87-.84,1.55-1.11,.68-.26,1.48-.4,2.4-.4,.68,0,1.36,.08,2.04,.23,.68,.15,1.24,.36,1.68,.62l-.94,2c-.85-.48-1.78-.72-2.79-.72-.6,0-1.05,.08-1.35,.25-.3,.17-.45,.38-.45,.65,0,.3,.16,.51,.49,.63,.32,.12,.84,.23,1.55,.34,.79,.13,1.44,.27,1.94,.42,.5,.15,.94,.42,1.31,.82,.37,.4,.56,.95,.56,1.66,0,.6-.18,1.13-.54,1.6-.36,.47-.88,.83-1.58,1.09-.69,.26-1.51,.39-2.46,.39-.8,0-1.59-.1-2.36-.3Z"/>
    <path id="Clients_Label" data-name="Clients" class="cls-81" d="M104.43,578.54c-1.04-.56-1.85-1.33-2.45-2.32s-.89-2.11-.89-3.36,.3-2.37,.89-3.36c.59-.99,1.41-1.76,2.45-2.32,1.04-.56,2.21-.84,3.5-.84,1.09,0,2.08,.19,2.96,.58,.88,.38,1.62,.94,2.22,1.66l-1.87,1.73c-.85-.98-1.91-1.48-3.17-1.48-.78,0-1.48,.17-2.09,.51-.61,.34-1.09,.82-1.43,1.43-.34,.61-.51,1.31-.51,2.09s.17,1.48,.51,2.09,.82,1.09,1.43,1.43c.61,.34,1.31,.51,2.09,.51,1.26,0,2.32-.5,3.17-1.49l1.87,1.73c-.6,.73-1.34,1.29-2.23,1.67-.89,.38-1.88,.58-2.97,.58-1.28,0-2.45-.28-3.48-.84Zm10.45-12.73h2.81v13.36h-2.81v-13.36Zm5.56,1.87c-.32-.3-.49-.67-.49-1.12s.16-.82,.49-1.12c.32-.3,.74-.45,1.26-.45s.94,.14,1.26,.43c.32,.29,.49,.65,.49,1.08,0,.47-.16,.86-.49,1.16s-.74,.46-1.26,.46-.94-.15-1.26-.45Zm-.14,1.8h2.81v9.68h-2.81v-9.68Zm14.85,5.63h-7.33c.13,.6,.44,1.07,.94,1.42s1.1,.52,1.84,.52c.5,0,.95-.08,1.34-.23,.39-.15,.75-.39,1.09-.71l1.49,1.62c-.91,1.04-2.24,1.57-4,1.57-1.09,0-2.06-.21-2.9-.64-.84-.43-1.49-1.02-1.94-1.77s-.68-1.61-.68-2.57,.22-1.8,.67-2.57c.45-.76,1.07-1.36,1.85-1.78,.79-.43,1.66-.64,2.64-.64s1.81,.2,2.57,.61c.77,.41,1.37,.99,1.81,1.75,.44,.76,.66,1.65,.66,2.65,0,.04-.02,.29-.05,.76Zm-6.57-3.11c-.43,.36-.7,.85-.79,1.48h4.77c-.1-.61-.36-1.1-.79-1.47-.43-.37-.96-.55-1.58-.55s-1.17,.18-1.6,.54Zm17.29-1.58c.74,.72,1.11,1.79,1.11,3.2v5.54h-2.81v-5.11c0-.77-.17-1.34-.5-1.72s-.82-.57-1.46-.57c-.71,0-1.27,.22-1.69,.66-.42,.44-.63,1.09-.63,1.95v4.79h-2.81v-9.68h2.68v1.13c.37-.41,.83-.72,1.39-.95,.55-.22,1.16-.33,1.82-.33,1.2,0,2.17,.36,2.91,1.08Zm9.89,8.28c-.28,.2-.62,.36-1.02,.46-.4,.1-.83,.15-1.27,.15-1.15,0-2.04-.29-2.67-.88s-.95-1.45-.95-2.59v-3.98h-1.49v-2.16h1.49v-2.36h2.81v2.36h2.41v2.16h-2.41v3.94c0,.41,.1,.72,.31,.95s.51,.33,.89,.33c.44,0,.82-.12,1.13-.36l.76,1.98Zm2.48,.32c-.77-.2-1.38-.45-1.84-.75l.94-2.02c.43,.28,.95,.5,1.57,.67,.61,.17,1.21,.26,1.8,.26,1.19,0,1.78-.29,1.78-.88,0-.28-.16-.47-.49-.59s-.82-.22-1.49-.31c-.79-.12-1.45-.26-1.96-.41s-.96-.43-1.34-.83-.57-.96-.57-1.69c0-.61,.18-1.16,.53-1.63,.35-.47,.87-.84,1.55-1.11s1.48-.4,2.4-.4c.68,0,1.36,.08,2.04,.22,.68,.15,1.24,.36,1.68,.62l-.94,2c-.85-.48-1.78-.72-2.79-.72-.6,0-1.05,.08-1.35,.25-.3,.17-.45,.38-.45,.65,0,.3,.16,.51,.49,.63,.32,.12,.84,.23,1.55,.34,.79,.13,1.44,.27,1.94,.42,.5,.15,.94,.42,1.31,.82,.37,.4,.56,.95,.56,1.66,0,.6-.18,1.13-.54,1.6-.36,.47-.88,.83-1.58,1.09-.69,.26-1.51,.39-2.46,.39-.8,0-1.59-.1-2.36-.3Z"/>
    <path id="SME_Label" class="cls-49" d="M146.04,793.98c-.93-.27-1.68-.62-2.24-1.05l.99-2.2c.54,.4,1.18,.71,1.93,.95s1.49,.36,2.23,.36c.83,0,1.44-.12,1.84-.37,.4-.25,.59-.57,.59-.98,0-.3-.12-.55-.35-.75-.23-.2-.53-.36-.9-.48s-.86-.25-1.49-.4c-.96-.23-1.75-.46-2.36-.68-.61-.23-1.14-.59-1.58-1.1-.44-.5-.66-1.18-.66-2.02,0-.73,.2-1.39,.59-1.99,.4-.59,.99-1.06,1.79-1.41s1.77-.52,2.93-.52c.8,0,1.59,.1,2.36,.29,.77,.19,1.44,.47,2.02,.83l-.9,2.21c-1.16-.66-2.33-.99-3.49-.99-.82,0-1.42,.13-1.81,.4-.39,.26-.58,.61-.58,1.04s.22,.75,.67,.96,1.14,.42,2.06,.62c.96,.23,1.75,.46,2.36,.68,.61,.23,1.14,.59,1.58,1.08,.44,.49,.66,1.16,.66,2,0,.72-.2,1.38-.6,1.97s-1,1.06-1.81,1.41c-.8,.35-1.78,.52-2.93,.52-1,0-1.96-.13-2.89-.41Zm19.79-9.49v9.68h-2.66v-1.15c-.37,.42-.82,.74-1.33,.96-.52,.22-1.07,.33-1.67,.33-1.27,0-2.28-.37-3.02-1.1-.74-.73-1.12-1.82-1.12-3.26v-5.47h2.81v5.06c0,1.56,.65,2.34,1.96,2.34,.67,0,1.21-.22,1.62-.66,.41-.44,.61-1.09,.61-1.95v-4.79h2.81Zm10.79,.48c.74,.41,1.32,1,1.74,1.75s.63,1.62,.63,2.62-.21,1.87-.63,2.62-1,1.33-1.74,1.75c-.74,.41-1.56,.62-2.46,.62-1.33,0-2.35-.42-3.04-1.26v1.12h-2.68v-13.36h2.81v4.7c.71-.78,1.68-1.17,2.92-1.17,.9,0,1.72,.21,2.46,.62Zm-1.17,6.32c.46-.49,.69-1.14,.69-1.95s-.23-1.47-.69-1.95-1.05-.73-1.77-.73-1.31,.24-1.77,.73-.69,1.14-.69,1.95,.23,1.47,.69,1.95,1.05,.73,1.77,.73,1.31-.24,1.77-.73Zm2.44,5.98l.76-2.03c.32,.23,.72,.34,1.19,.34,.36,0,.64-.12,.85-.35,.2-.23,.31-.58,.31-1.05v-9.68h2.81v9.67c0,1.13-.32,2.02-.96,2.67-.64,.65-1.54,.98-2.69,.98-.98,0-1.73-.18-2.25-.54Zm3.24-14.58c-.32-.3-.49-.67-.49-1.12s.16-.82,.49-1.12c.32-.3,.74-.45,1.26-.45s.94,.14,1.26,.43c.32,.29,.49,.65,.49,1.08,0,.47-.16,.86-.49,1.16s-.74,.46-1.26,.46-.94-.15-1.26-.45Zm14.69,7.43h-7.33c.13,.6,.44,1.07,.94,1.42s1.1,.52,1.84,.52c.5,0,.95-.08,1.34-.23,.39-.15,.75-.39,1.09-.71l1.49,1.62c-.91,1.04-2.24,1.57-4,1.57-1.09,0-2.06-.21-2.9-.64-.84-.43-1.49-1.02-1.94-1.77s-.68-1.61-.68-2.57,.22-1.8,.67-2.57c.45-.76,1.07-1.36,1.85-1.78,.79-.43,1.66-.64,2.64-.64s1.81,.2,2.57,.61c.77,.41,1.37,.99,1.81,1.75,.44,.76,.66,1.65,.66,2.65,0,.04-.02,.29-.05,.76Zm-6.57-3.11c-.43,.36-.7,.85-.79,1.48h4.77c-.1-.61-.36-1.1-.79-1.47-.43-.37-.96-.55-1.58-.55s-1.17,.18-1.6,.54Zm10.4,6.67c-.82-.43-1.46-1.02-1.93-1.77s-.69-1.61-.69-2.57,.23-1.82,.69-2.57,1.1-1.35,1.93-1.77c.82-.43,1.75-.64,2.78-.64s1.91,.21,2.67,.64c.76,.43,1.32,1.04,1.67,1.83l-2.18,1.17c-.5-.89-1.23-1.33-2.18-1.33-.73,0-1.34,.24-1.82,.72-.48,.48-.72,1.13-.72,1.96s.24,1.48,.72,1.96c.48,.48,1.09,.72,1.82,.72,.96,0,1.69-.44,2.18-1.33l2.18,1.19c-.35,.77-.9,1.37-1.67,1.8-.76,.43-1.65,.65-2.67,.65s-1.96-.21-2.78-.64Zm15.13,.03c-.28,.2-.62,.36-1.02,.46-.4,.1-.83,.15-1.27,.15-1.15,0-2.04-.29-2.67-.88s-.95-1.45-.95-2.59v-3.98h-1.49v-2.16h1.49v-2.36h2.81v2.36h2.41v2.16h-2.41v3.94c0,.41,.1,.72,.31,.95s.51,.33,.89,.33c.44,0,.82-.12,1.13-.36l.76,1.98Zm18.34,.47l-.02-7.56-3.71,6.23h-1.31l-3.69-6.07v7.4h-2.74v-12.6h2.41l4.72,7.83,4.64-7.83h2.39l.04,12.6h-2.74Zm12.89-8.76c.8,.71,1.21,1.79,1.21,3.23v5.53h-2.63v-1.21c-.53,.9-1.51,1.35-2.95,1.35-.74,0-1.39-.13-1.94-.38s-.96-.6-1.25-1.04c-.29-.44-.43-.95-.43-1.51,0-.9,.34-1.61,1.02-2.12s1.73-.77,3.14-.77h2.23c0-.61-.19-1.08-.56-1.41-.37-.33-.93-.49-1.67-.49-.52,0-1.02,.08-1.52,.24s-.92,.38-1.27,.66l-1.01-1.96c.53-.37,1.16-.66,1.9-.86,.74-.21,1.5-.31,2.28-.31,1.5,0,2.65,.36,3.46,1.07Zm-2.39,6.68c.37-.22,.64-.55,.79-.98v-.99h-1.93c-1.15,0-1.73,.38-1.73,1.13,0,.36,.14,.64,.42,.86,.28,.21,.67,.31,1.16,.31s.91-.11,1.28-.33Zm12.38,1.61c-.28,.2-.62,.36-1.02,.46-.4,.1-.83,.15-1.27,.15-1.15,0-2.04-.29-2.67-.88s-.95-1.45-.95-2.59v-3.98h-1.49v-2.16h1.49v-2.36h2.81v2.36h2.41v2.16h-2.41v3.94c0,.41,.1,.72,.31,.95s.51,.33,.89,.33c.44,0,.82-.12,1.13-.36l.76,1.98Zm7.61,0c-.28,.2-.62,.36-1.02,.46-.4,.1-.83,.15-1.27,.15-1.15,0-2.04-.29-2.67-.88s-.95-1.45-.95-2.59v-3.98h-1.49v-2.16h1.49v-2.36h2.81v2.36h2.41v2.16h-2.41v3.94c0,.41,.1,.72,.31,.95s.51,.33,.89,.33c.44,0,.82-.12,1.13-.36l.76,1.98Zm10.71-3.58h-7.33c.13,.6,.44,1.07,.94,1.42s1.1,.52,1.84,.52c.5,0,.95-.08,1.34-.23,.39-.15,.75-.39,1.09-.71l1.49,1.62c-.91,1.04-2.24,1.57-4,1.57-1.09,0-2.06-.21-2.9-.64-.84-.43-1.49-1.02-1.94-1.77s-.68-1.61-.68-2.57,.22-1.8,.67-2.57c.45-.76,1.07-1.36,1.85-1.78,.79-.43,1.66-.64,2.64-.64s1.81,.2,2.57,.61c.77,.41,1.37,.99,1.81,1.75,.44,.76,.66,1.65,.66,2.65,0,.04-.02,.29-.05,.76Zm-6.57-3.11c-.43,.36-.7,.85-.79,1.48h4.77c-.1-.61-.36-1.1-.79-1.47-.43-.37-.96-.55-1.58-.55s-1.17,.18-1.6,.54Zm12.54-2.3c.57-.24,1.23-.36,1.97-.36v2.59c-.31-.02-.52-.04-.63-.04-.8,0-1.43,.22-1.89,.67-.46,.45-.68,1.12-.68,2.03v4.57h-2.81v-9.68h2.68v1.28c.34-.47,.79-.82,1.36-1.06Zm-100.35,31.13v2.34h-9.76v-12.6h9.52v2.34h-6.62v2.74h5.85v2.27h-5.85v2.92h6.86Zm8.15,2.34l-2.12-2.97-2.2,2.97h-3.06l3.73-4.88-3.6-4.81h3.15l2.05,2.83,2.11-2.83h2.99l-3.6,4.73,3.74,4.95h-3.19Zm12.73-9.21c.74,.41,1.32,1,1.74,1.75s.63,1.62,.63,2.62-.21,1.87-.63,2.62-1,1.33-1.74,1.75c-.74,.41-1.56,.62-2.46,.62-1.24,0-2.21-.39-2.92-1.17v4.52h-2.81v-13.18h2.68v1.12c.7-.84,1.71-1.26,3.04-1.26,.9,0,1.72,.21,2.46,.62Zm-1.17,6.32c.46-.49,.69-1.14,.69-1.95s-.23-1.47-.69-1.95-1.05-.73-1.77-.73-1.31,.24-1.77,.73-.69,1.14-.69,1.95,.23,1.47,.69,1.95,1.05,.73,1.77,.73,1.31-.24,1.77-.73Zm14.84-1.16h-7.33c.13,.6,.44,1.07,.94,1.42s1.1,.52,1.84,.52c.5,0,.95-.08,1.34-.23,.39-.15,.75-.39,1.09-.71l1.49,1.62c-.91,1.04-2.24,1.57-4,1.57-1.09,0-2.06-.21-2.9-.64-.84-.43-1.49-1.02-1.94-1.77s-.68-1.61-.68-2.57,.22-1.8,.67-2.57c.45-.76,1.07-1.36,1.85-1.78,.79-.43,1.66-.64,2.64-.64s1.81,.2,2.57,.61c.77,.41,1.37,.99,1.81,1.75,.44,.76,.66,1.65,.66,2.65,0,.04-.02,.29-.05,.76Zm-6.57-3.11c-.43,.36-.7,.85-.79,1.48h4.77c-.1-.61-.36-1.1-.79-1.47-.43-.37-.96-.55-1.58-.55s-1.17,.18-1.6,.54Zm12.54-2.3c.57-.24,1.23-.36,1.97-.36v2.59c-.31-.02-.52-.04-.63-.04-.8,0-1.43,.22-1.89,.67-.46,.45-.68,1.12-.68,2.03v4.57h-2.81v-9.68h2.68v1.28c.34-.47,.79-.82,1.36-1.06Zm10.23,9c-.28,.2-.62,.36-1.02,.46-.4,.1-.83,.15-1.27,.15-1.15,0-2.04-.29-2.67-.88s-.95-1.45-.95-2.59v-3.98h-1.49v-2.16h1.49v-2.36h2.81v2.36h2.41v2.16h-2.41v3.94c0,.41,.1,.72,.31,.95s.51,.33,.89,.33c.44,0,.82-.12,1.13-.36l.76,1.98Zm1.73-11.02c-.32-.3-.49-.67-.49-1.12s.16-.82,.49-1.12c.32-.3,.74-.45,1.26-.45s.94,.14,1.26,.43c.32,.29,.49,.65,.49,1.08,0,.47-.16,.86-.49,1.16s-.74,.46-1.26,.46-.94-.15-1.26-.45Zm-.14,1.8h2.81v9.68h-2.81v-9.68Zm6.32,9.53c-.77-.2-1.38-.45-1.84-.75l.94-2.02c.43,.28,.95,.5,1.57,.67,.61,.17,1.21,.26,1.8,.26,1.19,0,1.78-.29,1.78-.88,0-.28-.16-.47-.49-.59s-.82-.22-1.49-.31c-.79-.12-1.45-.26-1.96-.41s-.96-.43-1.34-.83-.57-.96-.57-1.69c0-.61,.18-1.16,.53-1.63,.35-.47,.87-.84,1.55-1.11s1.48-.4,2.4-.4c.68,0,1.36,.08,2.04,.22,.68,.15,1.24,.36,1.68,.62l-.94,2c-.85-.48-1.78-.72-2.79-.72-.6,0-1.05,.08-1.35,.25-.3,.17-.45,.38-.45,.65,0,.3,.16,.51,.49,.63,.32,.12,.84,.23,1.55,.34,.79,.13,1.44,.27,1.94,.42,.5,.15,.94,.42,1.31,.82,.37,.4,.56,.95,.56,1.66,0,.6-.18,1.13-.54,1.6-.36,.47-.88,.83-1.58,1.09-.69,.26-1.51,.39-2.46,.39-.8,0-1.59-.1-2.36-.3Zm18.09-3.9h-7.33c.13,.6,.44,1.07,.94,1.42s1.1,.52,1.84,.52c.5,0,.95-.08,1.34-.23,.39-.15,.75-.39,1.09-.71l1.49,1.62c-.91,1.04-2.24,1.57-4,1.57-1.09,0-2.06-.21-2.9-.64-.84-.43-1.49-1.02-1.94-1.77s-.68-1.61-.68-2.57,.22-1.8,.67-2.57c.45-.76,1.07-1.36,1.85-1.78,.79-.43,1.66-.64,2.64-.64s1.81,.2,2.57,.61c.77,.41,1.37,.99,1.81,1.75,.44,.76,.66,1.65,.66,2.65,0,.04-.02,.29-.05,.76Zm-6.57-3.11c-.43,.36-.7,.85-.79,1.48h4.77c-.1-.61-.36-1.1-.79-1.47-.43-.37-.96-.55-1.58-.55s-1.17,.18-1.6,.54Z"/>
    <path id="Design_Label" data-name="Design" class="cls-45" d="M448.38,926.57h5.72c1.37,0,2.58,.26,3.63,.78,1.05,.52,1.87,1.26,2.45,2.21,.58,.95,.87,2.05,.87,3.31s-.29,2.36-.87,3.31c-.58,.95-1.4,1.68-2.45,2.21s-2.26,.78-3.63,.78h-5.72v-12.6Zm5.58,10.21c1.26,0,2.26-.35,3.01-1.05,.75-.7,1.12-1.65,1.12-2.85s-.38-2.15-1.12-2.85c-.75-.7-1.75-1.05-3.01-1.05h-2.66v7.81h2.66Zm18.52-1.66h-7.33c.13,.6,.44,1.07,.94,1.42s1.1,.52,1.84,.52c.5,0,.95-.08,1.34-.23,.39-.15,.75-.39,1.09-.71l1.49,1.62c-.91,1.04-2.24,1.57-4,1.57-1.09,0-2.06-.21-2.9-.64-.84-.43-1.49-1.02-1.94-1.77s-.68-1.61-.68-2.57,.22-1.8,.67-2.57c.45-.76,1.07-1.36,1.85-1.78,.79-.43,1.66-.64,2.64-.64s1.81,.2,2.57,.61c.77,.41,1.37,.99,1.81,1.75,.44,.76,.66,1.65,.66,2.65,0,.04-.02,.29-.05,.76Zm-6.57-3.11c-.43,.36-.7,.85-.79,1.48h4.77c-.1-.61-.36-1.1-.79-1.47-.43-.37-.96-.55-1.58-.55s-1.17,.18-1.6,.54Zm9.4,7.01c-.77-.2-1.38-.45-1.84-.75l.94-2.02c.43,.28,.95,.5,1.57,.67,.61,.17,1.21,.26,1.8,.26,1.19,0,1.78-.29,1.78-.88,0-.28-.16-.47-.49-.59s-.82-.22-1.49-.31c-.79-.12-1.45-.26-1.96-.41s-.96-.43-1.34-.83-.57-.96-.57-1.69c0-.61,.18-1.16,.53-1.63,.35-.47,.87-.84,1.55-1.11,.68-.26,1.48-.4,2.4-.4,.68,0,1.36,.08,2.04,.22,.68,.15,1.24,.36,1.68,.62l-.94,2c-.85-.48-1.78-.72-2.79-.72-.6,0-1.05,.08-1.35,.25-.3,.17-.45,.38-.45,.65,0,.3,.16,.51,.49,.63,.32,.12,.84,.23,1.55,.34,.79,.13,1.44,.27,1.94,.42,.5,.15,.94,.42,1.31,.82,.37,.4,.56,.95,.56,1.66,0,.6-.18,1.13-.54,1.6-.36,.47-.88,.83-1.58,1.09-.69,.26-1.51,.39-2.46,.39-.8,0-1.59-.1-2.36-.3Zm8.8-11.33c-.32-.3-.49-.67-.49-1.12s.16-.82,.49-1.12c.32-.3,.74-.45,1.26-.45s.94,.14,1.26,.43c.32,.29,.49,.65,.49,1.08,0,.47-.16,.86-.49,1.16s-.74,.46-1.26,.46-.94-.15-1.26-.45Zm-.14,1.8h2.81v9.68h-2.81v-9.68Zm15.41,0v8.06c0,1.78-.46,3.1-1.39,3.96-.92,.86-2.27,1.3-4.05,1.3-.94,0-1.82-.12-2.66-.34s-1.54-.56-2.09-.99l1.12-2.02c.41,.34,.92,.6,1.55,.8s1.25,.3,1.87,.3c.97,0,1.69-.22,2.15-.66,.46-.44,.69-1.1,.69-1.99v-.41c-.73,.8-1.75,1.21-3.06,1.21-.89,0-1.7-.2-2.44-.58-.74-.39-1.32-.94-1.75-1.65-.43-.71-.65-1.52-.65-2.45s.22-1.74,.65-2.45c.43-.71,1.02-1.26,1.75-1.65,.74-.39,1.55-.58,2.44-.58,1.4,0,2.47,.46,3.2,1.39v-1.24h2.66Zm-3.48,6.25c.47-.44,.71-1.01,.71-1.72s-.24-1.28-.71-1.72c-.47-.44-1.08-.66-1.83-.66s-1.36,.22-1.84,.66c-.48,.44-.72,1.01-.72,1.72s.24,1.28,.72,1.72c.48,.44,1.09,.66,1.84,.66s1.35-.22,1.83-.66Zm14.89-5.32c.74,.72,1.11,1.79,1.11,3.2v5.54h-2.81v-5.11c0-.77-.17-1.34-.5-1.72s-.82-.57-1.46-.57c-.71,0-1.27,.22-1.69,.66-.42,.44-.63,1.09-.63,1.95v4.79h-2.81v-9.68h2.68v1.13c.37-.41,.83-.72,1.39-.95,.55-.22,1.16-.33,1.82-.33,1.2,0,2.17,.36,2.91,1.08Z"/>
    <path id="Quality_Label" data-name="Quality" class="cls-31" d="M770.16,940.52c-.41,.5-.9,.89-1.49,1.15s-1.22,.4-1.92,.4c-.94,0-1.78-.2-2.54-.6s-1.62-1.11-2.59-2.13c-1.14-.14-2.16-.51-3.05-1.1-.89-.59-1.59-1.35-2.09-2.28s-.75-1.96-.75-3.09c0-1.24,.3-2.35,.89-3.34s1.42-1.77,2.47-2.33c1.05-.56,2.23-.85,3.54-.85s2.48,.28,3.53,.85c1.04,.56,1.87,1.34,2.47,2.33s.9,2.1,.9,3.34c0,1.46-.41,2.75-1.23,3.85-.82,1.1-1.91,1.87-3.27,2.3,.3,.31,.59,.54,.87,.68,.28,.14,.58,.21,.91,.21,.78,0,1.46-.31,2.05-.94l1.3,1.55Zm-10.95-5.56c.34,.61,.81,1.09,1.41,1.43,.6,.34,1.27,.51,2.02,.51s1.42-.17,2.02-.51c.6-.34,1.07-.82,1.41-1.43,.34-.61,.51-1.31,.51-2.09s-.17-1.48-.51-2.09c-.34-.61-.81-1.09-1.41-1.43-.6-.34-1.27-.51-2.02-.51s-1.42,.17-2.02,.51c-.6,.34-1.07,.82-1.41,1.43-.34,.61-.51,1.31-.51,2.09s.17,1.48,.51,2.09Zm22.08-5.47v9.68h-2.66v-1.15c-.37,.42-.82,.74-1.33,.96-.52,.22-1.07,.33-1.67,.33-1.27,0-2.28-.37-3.02-1.1-.74-.73-1.12-1.82-1.12-3.26v-5.47h2.81v5.06c0,1.56,.65,2.34,1.96,2.34,.67,0,1.21-.22,1.62-.66,.41-.44,.61-1.09,.61-1.95v-4.79h2.81Zm9.97,.93c.8,.71,1.21,1.79,1.21,3.23v5.53h-2.63v-1.21c-.53,.9-1.51,1.35-2.95,1.35-.74,0-1.39-.13-1.94-.38s-.96-.6-1.25-1.04c-.29-.44-.43-.95-.43-1.51,0-.9,.34-1.61,1.02-2.12s1.73-.77,3.14-.77h2.23c0-.61-.19-1.08-.56-1.41-.37-.33-.93-.49-1.67-.49-.52,0-1.02,.08-1.52,.24s-.92,.38-1.27,.66l-1.01-1.96c.53-.37,1.16-.66,1.9-.86,.74-.21,1.5-.31,2.28-.31,1.5,0,2.65,.36,3.46,1.07Zm-2.39,6.68c.37-.22,.64-.55,.79-.98v-.99h-1.93c-1.15,0-1.73,.38-1.73,1.13,0,.36,.14,.64,.42,.86,.28,.21,.67,.31,1.16,.31s.91-.11,1.28-.33Zm6.14-11.28h2.81v13.36h-2.81v-13.36Zm5.56,1.87c-.32-.3-.49-.67-.49-1.12s.16-.82,.49-1.12c.32-.3,.74-.45,1.26-.45s.94,.14,1.26,.43c.32,.29,.49,.65,.49,1.08,0,.47-.16,.86-.49,1.16s-.74,.46-1.26,.46-.94-.15-1.26-.45Zm-.14,1.8h2.81v9.68h-2.81v-9.68Zm11.66,9.22c-.28,.2-.62,.36-1.02,.46-.4,.1-.83,.15-1.27,.15-1.15,0-2.04-.29-2.67-.88s-.95-1.45-.95-2.59v-3.98h-1.49v-2.16h1.49v-2.36h2.81v2.36h2.41v2.16h-2.41v3.94c0,.41,.1,.72,.31,.95s.51,.33,.89,.33c.44,0,.82-.12,1.13-.36l.76,1.98Zm11.02-9.22l-4.37,10.28c-.44,1.12-.99,1.9-1.65,2.36s-1.44,.68-2.37,.68c-.5,0-1-.08-1.49-.23-.49-.16-.89-.37-1.21-.65l1.03-2c.22,.19,.46,.34,.75,.45s.56,.16,.84,.16c.38,0,.7-.09,.94-.28,.24-.19,.46-.5,.65-.93l.04-.09-4.19-9.76h2.9l2.72,6.57,2.74-6.57h2.7Z"/>
  </g>
</svg>

