<?xml version="1.0" encoding="UTF-8"?>
<svg xmlns="http://www.w3.org/2000/svg" viewBox="0 0 1298.58 976.58">
  <defs>
    <style>
      .cls-1, .cls-2, .cls-3, .cls-4, .cls-5, .cls-6, .cls-7, .cls-8, .cls-9, .cls-10, .cls-11, .cls-12 {
        opacity: .3;
      }

      .cls-1, .cls-13, .cls-14, .cls-15 {
        fill: #a9a9a9;
      }

      .cls-16 {
        letter-spacing: 0em;
      }

      .cls-17, .cls-18, .cls-19, .cls-20, .cls-21, .cls-22, .cls-23, .cls-24, .cls-25, .cls-26, .cls-27, .cls-28, .cls-15 {
        font-family: Montserrat-Bold, Montserrat;
        font-size: 18px;
        font-weight: 700;
      }

      .cls-17, .cls-29, .cls-5, .cls-30 {
        fill: #9f9f9f;
      }

      .cls-31, .cls-32, .cls-10, .cls-26 {
        fill: #727272;
      }

      .cls-18, .cls-6, .cls-33, .cls-34 {
        fill: #5d5d5d;
      }

      .cls-2, .cls-35, .cls-22, .cls-36 {
        fill: #c4c4c4;
      }

      .cls-35, .cls-32, .cls-37, .cls-38, .cls-39, .cls-40, .cls-33, .cls-41, .cls-30, .cls-14, .cls-42, .cls-43 {
        opacity: .6;
      }

      .cls-3, .cls-37, .cls-44, .cls-23 {
        fill: #8e8e8e;
      }

      .cls-45 {
        letter-spacing: 0em;
      }

      .cls-46, .cls-4, .cls-25, .cls-41 {
        fill: #8c8c8c;
      }

      .cls-38, .cls-47, .cls-21, .cls-11 {
        fill: #313131;
      }

      .cls-19, .cls-7, .cls-48, .cls-42 {
        fill: #7e7e7e;
      }

      .cls-49 {
        letter-spacing: 0em;
      }

      .cls-50 {
        letter-spacing: -.01em;
      }

      .cls-39, .cls-51, .cls-24, .cls-12 {
        fill: #b1b1b1;
      }

      .cls-52 {
        letter-spacing: 0em;
      }

      .cls-53 {
        opacity: .7;
      }

      .cls-53, .cls-54 {
        fill: #525252;
      }

      .cls-55 {
        letter-spacing: 0em;
      }

      .cls-56 {
        letter-spacing: -.02em;
      }

      .cls-57 {
        letter-spacing: -.01em;
      }

      .cls-58 {
        letter-spacing: -.02em;
      }

      .cls-8, .cls-20, .cls-59, .cls-43 {
        fill: #484848;
      }

      .cls-9, .cls-40, .cls-27, .cls-60 {
        fill: #595959;
      }

      .cls-61 {
        letter-spacing: -.02em;
      }

      .cls-62 {
        letter-spacing: -.02em;
      }

      .cls-63 {
        letter-spacing: 0em;
      }

      .cls-64 {
        letter-spacing: 0em;
      }

      .cls-65 {
        fill: #f1562c;
      }

      .cls-66 {
        letter-spacing: -.02em;
      }

      .cls-67 {
        letter-spacing: -.06em;
      }

      .cls-68 {
        letter-spacing: .02em;
      }

      .cls-69 {
        letter-spacing: 0em;
      }

      .cls-70 {
        letter-spacing: 0em;
      }

      .cls-71 {
        letter-spacing: 0em;
      }

      .cls-28 {
        fill: #fff;
      }

      .cls-72 {
        letter-spacing: 0em;
      }

      #Excellence-Circle_selected{fill:transparent;}
      #Excellence-Circle_selected:hover{fill:#f1562c;}

      #Vision-Circle_selected{fill:transparent;}
      #Vision-Circle_selected:hover{fill:#f1562c;}

      #Guidance-Circle_selected{fill:transparent;}
      #Guidance-Circle_selected:hover{fill:#f1562c;}

      #Facilitation-Circle_selected{fill:transparent;}
      #Facilitation-Circle_selected:hover{fill:#f1562c;}

      #Implementation-Circle_selected{fill:transparent;}
      #Implementation-Circle_selected:hover{fill:#f1562c;}

    </style>
  </defs>
  <g id="Vision">
    <g id="Vision-Areas-Gray">
      <path id="Finance_Vision" class="cls-31" d="M872.33,113.33l19-33c-66.64-38.56-136.47-59-219-59V59.33c74.51,0,139.83,19.19,200,54Z"/>
      <path id="Innovation_Vision" class="cls-34" d="M1024.33,262.33l33-18c-39.77-68.74-92.26-121.23-161-161l-19,32c62.07,35.91,111.09,84.93,147,147Z"/>
      <path id="Tech_Vision" class="cls-59" d="M1081.33,468.33h38c0-82.53-20.44-152.36-59-219l-33,18c34.81,60.17,54,126.49,54,201Z"/>
      <path id="DDD_Vision" class="cls-47" d="M1081.33,474.33c0,74.51-19.19,141.83-54,202l32,18c38.56-66.64,60-137.47,60-220h-38Z"/>
      <path id="CA_Vision" class="cls-60" d="M877.33,828.33l18,31c68.74-39.77,121.23-91.26,161-160l-32-19c-35.91,62.07-84.93,112.09-147,148Z"/>
      <path id="Quality_Vision" class="cls-48" d="M672.33,883.33v37c82.42,0,151.45-19.49,218-58l-18-31c-60.09,34.77-125.58,52-200,52Z"/>
      <path id="Design_Vision" class="cls-46" d="M465.33,830.33l-19,33c66.64,38.56,137.47,57,220,57v-37c-74.51,0-140.83-18.19-201-53Z"/>
      <path id="SME_Vision" class="cls-29" d="M314.33,681.33l-32,18c39.77,68.74,90.26,121.23,159,161l19-33c-62.06-35.91-110.09-83.94-146-146Z"/>
      <path id="Clients_Vision" class="cls-51" d="M257.33,474.33h-38c0,82.53,21.44,153.36,60,220l32-19c-34.81-60.17-54-126.49-54-201Z"/>
      <path id="Marketing_Vision" class="cls-36" d="M311.33,268.33l-33-19c-38.56,66.64-59,136.47-59,219h38c0-74.51,19.19-139.83,54-200Z"/>
      <path id="Our-People_Vision" class="cls-13" d="M460.33,116.33l-19-33c-68.74,39.77-120.23,91.26-160,160l33,19c35.91-62.06,83.94-110.09,146-146Z"/>
      <path id="Operations_Vision" class="cls-44" d="M666.33,59.33V21.33c-82.53,0-153.36,20.44-220,59l19,33c60.17-34.81,126.49-54,201-54Z"/>
    </g>
    <path id="Vision-Circle_selected" class="cls-65" d="M669.33,19.58c-249.22,0-451.25,202.03-451.25,451.25s202.03,451.25,451.25,451.25,451.25-202.03,451.25-451.25S918.55,19.58,669.33,19.58Zm0,864.25c-228.09,0-411-184.91-411-413S441.24,59.83,669.33,59.83s411,182.91,411,411-182.91,413-411,413Z"/>
  </g>
  <g id="Excellence">
    <g id="Excellence-Areas-Gray">
      <path id="Finance_Excellence" class="cls-32" d="M841.33,168.33l28-50c-60.17-34.81-122.49-53-197-53v57c63.03,0,118.1,16.55,169,46Z"/>
      <path id="Innovation_Excellence" class="cls-33" d="M969.33,294.33l50-29c-35.91-62.07-82.93-108.09-145-144l-28,49c52.5,30.38,92.62,71.5,123,124Z"/>
      <path id="Tech_Excellence" class="cls-43" d="M972.33,299.33c29.45,50.9,46,105.97,46,169h57c0-74.51-18.19-137.83-53-198l-50,29Z"/>
      <path id="DDD_Excellence" class="cls-38" d="M972.33,644.33l50,29c34.81-60.17,53-124.49,53-199h-57c0,63.03-16.55,119.1-46,170Z"/>
      <path id="CA_Excellence" class="cls-40" d="M846.33,773.33l28,49c62.07-35.91,109.09-81.93,145-144l-50-29c-30.38,52.5-70.5,93.62-123,124Z"/>
      <path id="Quality_Excellence" class="cls-42" d="M672.33,820.33v57c74.51,0,136.83-17.19,197-52l-28-49c-50.9,29.45-105.97,44-169,44Z"/>
      <path id="Design_Excellence" class="cls-41" d="M497.33,776.33l-29,49c60.17,34.81,123.49,52,198,52v-57c-63.03,0-118.1-14.55-169-44Z"/>
      <path id="SME_Excellence" class="cls-30" d="M368.33,649.33l-49,29c35.91,62.06,81.94,108.09,144,144l29-49c-52.5-30.38-93.62-71.5-124-124Z"/>
      <path id="Clients_Excellence" class="cls-39" d="M320.33,474.33h-57c0,74.51,18.19,138.83,53,199l49-29c-29.45-50.9-45-106.97-45-170Z"/>
      <path id="Marketing_Excellence" class="cls-35" d="M365.33,299.33l-49-29c-34.81,60.17-53,123.49-53,198h57c0-63.03,15.55-118.1,45-169Z"/>
      <path id="Our-People_Excellence" class="cls-14" d="M492.33,170.33l-29-49c-62.06,35.91-108.09,81.94-144,144l49,29c30.38-52.5,71.5-93.62,124-124Z"/>
      <path id="Operations_Excellence" class="cls-37" d="M666.33,122.33v-57c-74.51,0-137.83,18.19-198,53l29,50c50.9-29.45,105.97-46,169-46Z"/>
    </g>
    <path id="Excellence-Circle_selected" class="cls-65" d="M669.33,64.58c-224.37,0-406.25,181.88-406.25,406.25s181.88,408.25,406.25,408.25,406.25-183.88,406.25-408.25S893.69,64.58,669.33,64.58Zm0,756c-193.16,0-347.75-156.59-347.75-349.75S476.17,123.08,669.33,123.08s347.75,154.59,347.75,347.75-154.59,349.75-347.75,349.75Z"/>
  </g>
  <g id="Guidance">
    <g id="Guidance-Areas-Gray">
      <path id="Finance_Guidance" class="cls-10" d="M795.33,247.32l43-75c-50.9-29.45-102.97-44-166-44v86c46.27,0,85.64,11.38,123,33Z"/>
      <path id="Innovation_Guidance" class="cls-6" d="M843.33,175.33l-43,75c38.54,22.3,67.7,51.46,90,90l75-43c-30.38-52.5-69.5-91.62-122-122Z"/>
      <path id="Tech_Guidance" class="cls-8" d="M926.33,468.33h86c0-63.03-14.55-115.1-44-166l-75,43c21.62,37.36,33,76.73,33,123Z"/>
      <path id="DDD_Guidance" class="cls-11" d="M894.33,598.33l73,43c29.45-50.9,45-103.97,45-167h-86c0,46.27-10.38,86.64-32,124Z"/>
      <path id="CA_Guidance" class="cls-9" d="M800.33,693.33l43,75c52.5-30.38,90.62-69.5,121-122l-73-43c-22.3,38.54-52.46,67.7-91,90Z"/>
      <path id="Quality_Guidance" class="cls-7" d="M672.33,728.33v86c63.03,0,115.1-14.55,166-44l-43-74c-37.36,21.62-76.73,32-123,32Z"/>
      <path id="Design_Guidance" class="cls-4" d="M543.33,696.33l-43,75c50.9,29.45,102.97,43,166,43v-86c-46.27,0-85.64-10.38-123-32Z"/>
      <path id="SME_Guidance" class="cls-5" d="M448.33,603.33l-75,43c30.38,52.5,69.5,91.62,122,122l43-75c-38.54-22.3-67.7-51.46-90-90Z"/>
      <path id="Clients_Guidance" class="cls-12" d="M412.33,474.33h-86c0,63.03,14.55,116.1,44,167l75-43c-21.62-37.36-33-77.73-33-124Z"/>
      <path id="Marketing_Guidance" class="cls-2" d="M445.33,345.33l-75-43c-29.45,50.9-44,102.97-44,166h86c0-46.27,11.38-85.64,33-123Z"/>
      <path id="Our-People_Guidance" class="cls-1" d="M538.33,250.32l-43-75c-52.5,30.38-91.62,69.5-122,122l75,43c22.3-38.54,51.46-67.7,90-90Z"/>
      <path id="Operations_Guidance" class="cls-3" d="M666.33,214.33v-86c-63.03,0-115.1,14.55-166,44l43,75c37.36-21.62,76.73-33,123-33Z"/>
    </g>
    <path id="Guidance-Circle_selected" class="cls-65" d="M669.33,127.58c-189.57,0-343.25,153.68-343.25,343.25s153.68,343.25,343.25,343.25,343.25-153.68,343.25-343.25S858.9,127.58,669.33,127.58Zm0,601c-142.35,0-257.75-115.4-257.75-257.75s115.4-255.75,257.75-255.75,257.75,113.4,257.75,255.75-115.4,257.75-257.75,257.75Z"/>
  </g>
  <g id="Facilitation">
    <path id="Facilitation-Circle-Gray" class="cls-54" d="M669.33,220.33c-138.62,0-251,112.38-251,251s112.38,251,251,251,251-112.38,251-251-112.38-251-251-251Zm0,394c-78.98,0-143-64.02-143-143s64.02-143,143-143,143,64.02,143,143-64.02,143-143,143Z"/>
    <path id="Facilitation-Circle_selected" class="cls-65" d="M669.33,220.33c-138.62,0-251,112.38-251,251s112.38,251,251,251,251-112.38,251-251-112.38-251-251-251Zm0,394c-78.98,0-143-64.02-143-143s64.02-143,143-143,143,64.02,143,143-64.02,143-143,143Z"/>
  </g>
  <g id="Implementation">
    <circle id="Implementation-Circle-Gray" class="cls-53" cx="669.33" cy="471.33" r="137"/>
    <circle id="Implementation-Circle_selected" class="cls-65" cx="669.33" cy="471.33" r="137"/>
  </g>
  <g id="Areas-of-Focus_Labels">
    <text id="Construction-Administration" class="cls-27" transform="translate(1029.37 795.3)"><tspan class="cls-56" x="0" y="0">C</tspan><tspan x="12.85" y="0">onstru</tspan><tspan class="cls-16" x="74.59" y="0">c</tspan><tspan x="85.37" y="0">tion</tspan><tspan class="cls-52" x="-9.53" y="24">A</tspan><tspan x="4.17" y="24">dminist</tspan><tspan class="cls-63" x="76.17" y="24">r</tspan><tspan x="83.8" y="24">ation</tspan></text>
    <text id="_.-.-." data-name=".-.-." class="cls-21" transform="translate(1125.62 580.3)"><tspan x="0" y="0">. . .</tspan></text>
    <text class="cls-20" transform="translate(1126.09 363.3)"><tspan class="cls-67" x="0" y="0">T</tspan><tspan x="10.13" y="0">e</tspan><tspan class="cls-49" x="21.49" y="0">c</tspan><tspan x="32.06" y="0">h</tspan><tspan class="cls-69" x="44.5" y="0">n</tspan><tspan x="57.04" y="0">ology</tspan></text>
    <text class="cls-18" transform="translate(1011.08 143.3)"><tspan x="0" y="0">In</tspan><tspan class="cls-70" x="18.34" y="0">n</tspan><tspan class="cls-66" x="30.89" y="0">o</tspan><tspan class="cls-61" x="42.41" y="0">v</tspan><tspan x="52.85" y="0">ation</tspan></text>
    <text class="cls-26" transform="translate(782.44 15.3)"><tspan class="cls-55" x="0" y="0">F</tspan><tspan x="11.32" y="0">ina</tspan><tspan class="cls-69" x="40.28" y="0">n</tspan><tspan class="cls-71" x="52.83" y="0">c</tspan><tspan class="cls-64" x="63.34" y="0">e</tspan></text>
    <text class="cls-23" transform="translate(457.42 15.3)"><tspan x="0" y="0">Ope</tspan><tspan class="cls-63" x="38.97" y="0">r</tspan><tspan x="46.6" y="0">ations</tspan></text>
    <text id="Our-People" class="cls-15" transform="translate(222.92 143.3)"><tspan x="0" y="0">Our </tspan><tspan class="cls-57" x="40.41" y="0">P</tspan><tspan class="cls-45" x="53.39" y="0">eople</tspan></text>
    <text id="Marketing-and-Communications" class="cls-22" transform="translate(61.25 363.3)"><tspan x="0" y="0">Ma</tspan><tspan class="cls-72" x="28.29" y="0">r</tspan><tspan class="cls-62" x="35.98" y="0">k</tspan><tspan x="47.45" y="0">eti</tspan><tspan class="cls-70" x="72.05" y="0">n</tspan><tspan x="84.6" y="0">g +</tspan><tspan class="cls-56" x="-24.17" y="24">C</tspan><tspan x="-11.31" y="24">ommunications</tspan></text>
    <text class="cls-24" transform="translate(138.18 580.3)"><tspan x="0" y="0">Clients</tspan></text>
    <text id="Subject-Matter-Expertise" class="cls-17" transform="translate(181.08 795.3)"><tspan x="0" y="0">Subje</tspan><tspan class="cls-16" x="53.15" y="0">c</tspan><tspan x="63.93" y="0">t Ma</tspan><tspan class="cls-50" x="105.15" y="0">t</tspan><tspan class="cls-58" x="112.77" y="0">t</tspan><tspan x="120.29" y="0">er</tspan><tspan class="cls-63" x="25.39" y="24">E</tspan><tspan x="37.34" y="24">xpe</tspan><tspan class="cls-68" x="71.83" y="24">r</tspan><tspan x="79.86" y="24">tise</tspan></text>
    <text class="cls-25" transform="translate(484.67 940.3)"><tspan x="0" y="0">Design</tspan></text>
    <text class="cls-19" transform="translate(792.83 940.3)"><tspan x="0" y="0">Quali</tspan><tspan class="cls-55" x="49.5" y="0">t</tspan><tspan x="57.15" y="0">y</tspan></text>
  </g>
  <g id="Role-Types_Labels">
    <text class="cls-28" transform="translate(593.13 429.3)"><tspan x="0" y="0">imple</tspan><tspan class="cls-70" x="53.5" y="0">m</tspan><tspan class="cls-64" x="72.49" y="0">entation</tspan></text>
    <text class="cls-28" transform="translate(672.5 319.43) rotate(2.49)"><tspan x="0" y="0">f</tspan></text>
    <text class="cls-28" transform="translate(679.13 319.65) rotate(5.81)"><tspan x="0" y="0">a</tspan></text>
    <text class="cls-28" transform="translate(690.08 320.77) rotate(9.91)"><tspan x="0" y="0">c</tspan></text>
    <text class="cls-28" transform="translate(700.38 322.63) rotate(12.9)"><tspan x="0" y="0">i</tspan></text>
    <text class="cls-28" transform="translate(705.56 323.81) rotate(14.92)"><tspan x="0" y="0">l</tspan></text>
    <text class="cls-28" transform="translate(710.69 325.18) rotate(16.93)"><tspan x="0" y="0">i</tspan></text>
    <text class="cls-28" transform="translate(715.78 326.7) rotate(19.39)"><tspan x="0" y="0">t</tspan></text>
    <text class="cls-28" transform="translate(723 329.18) rotate(22.89)"><tspan x="0" y="0">a</tspan></text>
    <text class="cls-28" transform="translate(733.05 333.47) rotate(26.39)"><tspan x="0" y="0">t</tspan></text>
    <text class="cls-28" transform="translate(739.94 336.91) rotate(28.83)"><tspan x="0" y="0">i</tspan></text>
    <text class="cls-28" transform="translate(744.6 339.38) rotate(32.01)"><tspan x="0" y="0">o</tspan></text>
    <text class="cls-28" transform="translate(754.4 345.48) rotate(36.48)"><tspan x="0" y="0">n</tspan></text>
    <text class="cls-28" transform="translate(818.67 251.37) rotate(35.63)"><tspan x="0" y="0">g</tspan></text>
    <text class="cls-28" transform="translate(828.8 258.62) rotate(38.3)"><tspan x="0" y="0">u</tspan></text>
    <text class="cls-28" transform="translate(838.38 266.27) rotate(40.2)"><tspan x="0" y="0">i</tspan></text>
    <text class="cls-28" transform="translate(842.49 269.66) rotate(42.11)"><tspan x="0" y="0">d</tspan></text>
    <text class="cls-28" transform="translate(851.63 277.93) rotate(44.62)"><tspan x="0" y="0">a</tspan></text>
    <text class="cls-28" transform="translate(859.45 285.62) rotate(47.12)"><tspan x="0" y="0">n</tspan></text>
    <text class="cls-28" transform="translate(867.89 294.74) rotate(49.6)"><tspan x="0" y="0">c</tspan></text>
    <text class="cls-28" transform="translate(874.63 302.64) rotate(51.9)"><tspan x="0" y="0">e</tspan></text>
    <text class="cls-28" transform="translate(1000.44 328.07) rotate(67.63)"><tspan x="0" y="0">e</tspan></text>
    <text class="cls-28" transform="translate(1004.62 338.22) rotate(69.32)"><tspan x="0" y="0">x</tspan></text>
    <text class="cls-28" transform="translate(1008.27 347.88) rotate(70.96)"><tspan x="0" y="0">c</tspan></text>
    <text class="cls-28" transform="translate(1011.68 357.72) rotate(72.67)"><tspan x="0" y="0">e</tspan></text>
    <text class="cls-28" transform="translate(1015.01 368.5) rotate(73.99)"><tspan x="0" y="0">l</tspan></text>
    <text class="cls-28" transform="translate(1016.49 373.68) rotate(74.85)"><tspan x="0" y="0">l</tspan></text>
    <text class="cls-28" transform="translate(1017.93 378.85) rotate(76.17)"><tspan x="0" y="0">e</tspan></text>
    <text class="cls-28" transform="translate(1020.63 389.76) rotate(78.03)"><tspan x="0" y="0">n</tspan></text>
    <text class="cls-28" transform="translate(1023.2 401.96) rotate(79.86)"><tspan x="0" y="0">c</tspan></text>
    <text class="cls-28" transform="translate(1025.04 412.22) rotate(81.56)"><tspan x="0" y="0">e</tspan></text>
    <text class="cls-28" transform="translate(1080 552.99) rotate(102.1)"><tspan x="0" y="0">v</tspan></text>
    <text class="cls-28" transform="translate(1077.73 563.46) rotate(103.2)"><tspan x="0" y="0">i</tspan></text>
    <text class="cls-28" transform="translate(1076.53 568.66) rotate(104.21)"><tspan x="0" y="0">s</tspan></text>
    <text class="cls-28" transform="translate(1074.18 577.87) rotate(105.23)"><tspan x="0" y="0">i</tspan></text>
    <text class="cls-28" transform="translate(1072.8 583.04) rotate(106.39)"><tspan x="0" y="0">o</tspan></text>
    <text class="cls-28" transform="translate(1069.51 594.28) rotate(108.03)"><tspan x="0" y="0">n</tspan></text>
  </g>
</svg>