<?xml version="1.0" encoding="UTF-8"?>
<svg xmlns="http://www.w3.org/2000/svg" viewBox="0 0 1298.58 976.58" id="growth-path">
  <defs>
    <style>
      .cls-1, .cls-2, .cls-3, .cls-4, .cls-5, .cls-6, .cls-7, .cls-8, .cls-9, .cls-10, .cls-11, .cls-12 {
        opacity: .6;
      }

      .cls-1, .cls-13, .cls-14, .cls-15 {
        fill: #117899;
      }

      .cls-16, .cls-17, .cls-7, .cls-18 {
        fill: #eac843;
      }

      .cls-16, .cls-19, .cls-20, .cls-21, .cls-22, .cls-23, .cls-24, .cls-15, .cls-25, .cls-26, .cls-27, .cls-28 {
        opacity: .3;
      }

      .cls-2, .cls-29, .cls-30, .cls-28 {
        fill: #0d3d54;
      }

      .cls-31, .cls-32, .cls-8, .cls-24 {
        fill: #5ca793;
      }

      .cls-33 {
        letter-spacing: 0em;
      }

      .cls-32, .cls-13, .cls-34, .cls-35, .cls-36, .cls-37, .cls-38, .cls-30, .cls-39, .cls-40, .cls-18, .cls-41, .cls-42 {
        font-family: Montserrat-Bold, Montserrat;
        font-size: 18px;
        font-weight: 700;
      }

      .cls-43 {
        letter-spacing: 0em;
      }

      .cls-44, .cls-20, .cls-6, .cls-36 {
        fill: #1395b9;
      }

      .cls-3, .cls-34, .cls-45, .cls-23 {
        fill: #c02f1e;
      }

      .cls-4, .cls-21, .cls-38, .cls-46 {
        fill: #ef8b2d;
      }

      .cls-5, .cls-19, .cls-37, .cls-47 {
        fill: #a2b86d;
      }

      .cls-48 {
        letter-spacing: 0em;
      }

      .cls-49 {
        letter-spacing: -.01em;
      }

      .cls-50, .cls-22, .cls-11, .cls-39 {
        fill: #f0532d;
      }

      .cls-51 {
        letter-spacing: 0em;
      }

      .cls-52 {
        letter-spacing: 0em;
      }

      .cls-53 {
        letter-spacing: -.02em;
      }

      .cls-54 {
        letter-spacing: -.01em;
      }

      .cls-55 {
        letter-spacing: -.02em;
      }

      .cls-35, .cls-9, .cls-56, .cls-26 {
        fill: #f16c21;
      }

      .cls-57 {
        letter-spacing: -.02em;
      }

      .cls-58 {
        letter-spacing: -.02em;
      }

      .cls-59 {
        letter-spacing: 0em;
      }

      .cls-60 {
        letter-spacing: 0em;
      }

      .cls-10, .cls-61, .cls-41, .cls-27 {
        fill: #105b78;
      }

      .cls-62, .cls-63 {
        fill: #6b406b;
      }

      .cls-64 {
        letter-spacing: -.02em;
      }

      .cls-25, .cls-40, .cls-65, .cls-12 {
        fill: #ecaa39;
      }

      .cls-66 {
        letter-spacing: -.06em;
      }

      .cls-67 {
        letter-spacing: .02em;
      }

      .cls-68 {
        letter-spacing: 0em;
      }

      .cls-69 {
        letter-spacing: 0em;
      }

      .cls-63 {
        opacity: .7;
      }

      .cls-70 {
        letter-spacing: 0em;
      }

      .cls-42 {
        fill: #fff;
      }

      .cls-71 {
        letter-spacing: 0em;
      }

      #Finance_Vision:hover{fill:#D0D0D0;}
      #Finance_Excellence:hover{fill:#D0D0D0;}
      #Finance_Guidance:hover{fill:#D0D0D0;}

      #Innovation_Vision:hover{fill:#D0D0D0;}
      #Innovation_Excellence:hover{fill:#D0D0D0;}
      #Innovation_Guidance:hover{fill:#D0D0D0;}

      #Tech_Vision:hover{fill:#D0D0D0;}
      #Tech_Excellence:hover{fill:#D0D0D0;}
      #Tech_Guidance:hover{fill:#D0D0D0;}

      #DDD_Vision:hover{fill:#D0D0D0;}
      #CA_Vision:hover{fill:#D0D0D0;}
      #Design_Vision:hover{fill:#D0D0D0;}
      #Quality_Vision:hover{fill:#D0D0D0;}
      #SME_Vision:hover{fill:#D0D0D0;}
      #Clients_Vision:hover{fill:#D0D0D0;}
      #Marketing_Vision:hover{fill:#D0D0D0;}
      #Our_People_Vision:hover{fill:#D0D0D0;}
      #Operations_Vision:hover{fill:#D0D0D0;}
      #Facilitation_Circle:hover{fill:#D0D0D0;}
      #Implementation_Circle:hover{fill:#D0D0D0;}

    </style>
  </defs>
  <g id="Finance">
    <path id="Finance_Vision" class="cls-44" d="M872.33,113.33l19-33c-66.64-38.56-136.47-59-219-59V59.33c74.51,0,139.83,19.19,200,54Z"/>
    <path id="Finance_Excellence" class="cls-6" d="M841.33,168.33l28-50c-60.17-34.81-122.49-53-197-53v57c63.03,0,118.1,16.55,169,46Z"/>
    <path id="Finance_Guidance" class="cls-20" d="M795.33,247.32l43-75c-50.9-29.45-102.97-44-166-44v86c46.27,0,85.64,11.38,123,33Z"/>
  </g>
  <g id="Innovation">
    <path id="Innovation_Vision" class="cls-14" d="M1024.33,262.33l33-18c-39.77-68.74-92.26-121.23-161-161l-19,32c62.07,35.91,111.09,84.93,147,147Z"/>
    <path id="Innovation_Excellence" class="cls-1" d="M969.33,294.33l50-29c-35.91-62.07-82.93-108.09-145-144l-28,49c52.5,30.38,92.62,71.5,123,124Z"/>
    <path id="Innovation_Guidance" class="cls-15" d="M843.33,175.33l-43,75c38.54,22.3,67.7,51.46,90,90l75-43c-30.38-52.5-69.5-91.62-122-122Z"/>
  </g>
  <g id="Technology">
    <path id="Tech_Vision" class="cls-61" d="M1081.33,468.33h38c0-82.53-20.44-152.36-59-219l-33,18c34.81,60.17,54,126.49,54,201Z"/>
    <path id="Tech_Excellence" class="cls-10" d="M972.33,299.33c29.45,50.9,46,105.97,46,169h57c0-74.51-18.19-137.83-53-198l-50,29Z"/>
    <path id="Tech_Guidance" class="cls-27" d="M926.33,468.33h86c0-63.03-14.55-115.1-44-166l-75,43c21.62,37.36,33,76.73,33,123Z"/>
  </g>
  <g id="Dot_Dot_Dot" data-name="Dot Dot Dot">
    <path id="DDD_Vision" class="cls-29" d="M1081.33,474.33c0,74.51-19.19,141.83-54,202l32,18c38.56-66.64,60-137.47,60-220h-38Z"/>
    <path id="DDD_Excellence" class="cls-2" d="M972.33,644.33l50,29c34.81-60.17,53-124.49,53-199h-57c0,63.03-16.55,119.1-46,170Z"/>
    <path id="DDD_Guidance" class="cls-28" d="M894.33,598.33l73,43c29.45-50.9,45-103.97,45-167h-86c0,46.27-10.38,86.64-32,124Z"/>
  </g>
  <g id="Construction_Administration" data-name="Construction Administration">
    <path id="CA_Vision" class="cls-45" d="M877.33,828.33l18,31c68.74-39.77,121.23-91.26,161-160l-32-19c-35.91,62.07-84.93,112.09-147,148Z"/>
    <path id="CA_Excellence" class="cls-3" d="M846.33,773.33l28,49c62.07-35.91,109.09-81.93,145-144l-50-29c-30.38,52.5-70.5,93.62-123,124Z"/>
    <path id="CA_Guidance" class="cls-23" d="M800.33,693.33l43,75c52.5-30.38,90.62-69.5,121-122l-73-43c-22.3,38.54-52.46,67.7-91,90Z"/>
  </g>
  <g id="Quality">
    <path id="Quality_Vision" class="cls-50" d="M672.33,883.33v37c82.42,0,151.45-19.49,218-58l-18-31c-60.09,34.77-125.58,52-200,52Z"/>
    <path id="Quality_Excellence" class="cls-11" d="M672.33,820.33v57c74.51,0,136.83-17.19,197-52l-28-49c-50.9,29.45-105.97,44-169,44Z"/>
    <path id="Quality_Guidance" class="cls-22" d="M672.33,728.33v86c63.03,0,115.1-14.55,166-44l-43-74c-37.36,21.62-76.73,32-123,32Z"/>
  </g>
  <g id="Design">
    <path id="Design_Vision" class="cls-56" d="M465.33,830.33l-19,33c66.64,38.56,137.47,57,220,57v-37c-74.51,0-140.83-18.19-201-53Z"/>
    <path id="Design_Excellence" class="cls-9" d="M497.33,776.33l-29,49c60.17,34.81,123.49,52,198,52v-57c-63.03,0-118.1-14.55-169-44Z"/>
    <path id="Design_Guidance" class="cls-26" d="M543.33,696.33l-43,75c50.9,29.45,102.97,43,166,43v-86c-46.27,0-85.64-10.38-123-32Z"/>
  </g>
  <g id="Subject_Matter_Expertise" data-name="Subject Matter Expertise">
    <path id="SME_Vision" class="cls-46" d="M314.33,681.33l-32,18c39.77,68.74,90.26,121.23,159,161l19-33c-62.06-35.91-110.09-83.94-146-146Z"/>
    <path id="SME_Excellence" class="cls-4" d="M368.33,649.33l-49,29c35.91,62.06,81.94,108.09,144,144l29-49c-52.5-30.38-93.62-71.5-124-124Z"/>
    <path id="SME_Guidance" class="cls-21" d="M448.33,603.33l-75,43c30.38,52.5,69.5,91.62,122,122l43-75c-38.54-22.3-67.7-51.46-90-90Z"/>
  </g>
  <g id="Clients">
    <path id="Clients_Vision" class="cls-65" d="M257.33,474.33h-38c0,82.53,21.44,153.36,60,220l32-19c-34.81-60.17-54-126.49-54-201Z"/>
    <path id="Clients_Excellence" class="cls-12" d="M320.33,474.33h-57c0,74.51,18.19,138.83,53,199l49-29c-29.45-50.9-45-106.97-45-170Z"/>
    <path id="Clients_Guidance" class="cls-25" d="M412.33,474.33h-86c0,63.03,14.55,116.1,44,167l75-43c-21.62-37.36-33-77.73-33-124Z"/>
  </g>
  <g id="Marketing_and_Communications" data-name="Marketing and Communications">
    <path id="Marketing_Vision" class="cls-17" d="M311.33,268.33l-33-19c-38.56,66.64-59,136.47-59,219h38c0-74.51,19.19-139.83,54-200Z"/>
    <path id="Marketing_Excellence" class="cls-7" d="M365.33,299.33l-49-29c-34.81,60.17-53,123.49-53,198h57c0-63.03,15.55-118.1,45-169Z"/>
    <path id="Marketing_Guidance" class="cls-16" d="M445.33,345.33l-75-43c-29.45,50.9-44,102.97-44,166h86c0-46.27,11.38-85.64,33-123Z"/>
  </g>
  <g id="Our_People" data-name="Our People">
    <path id="Our_People_Vision" data-name="Our People_Vision" class="cls-47" d="M460.33,116.33l-19-33c-68.74,39.77-120.23,91.26-160,160l33,19c35.91-62.06,83.94-110.09,146-146Z"/>
    <path id="Our_People_Excellence" data-name="Our People_Excellence" class="cls-5" d="M492.33,170.33l-29-49c-62.06,35.91-108.09,81.94-144,144l49,29c30.38-52.5,71.5-93.62,124-124Z"/>
    <path id="Our_People_Guidance" data-name="Our People_Guidance" class="cls-19" d="M538.33,250.32l-43-75c-52.5,30.38-91.62,69.5-122,122l75,43c22.3-38.54,51.46-67.7,90-90Z"/>
  </g>
  <g id="Operations">
    <path id="Operations_Vision" class="cls-31" d="M666.33,59.33V21.33c-82.53,0-153.36,20.44-220,59l19,33c60.17-34.81,126.49-54,201-54Z"/>
    <path id="Operations_Excellence" class="cls-8" d="M666.33,122.33v-57c-74.51,0-137.83,18.19-198,53l29,50c50.9-29.45,105.97-46,169-46Z"/>
    <path id="Operations_Guidance" class="cls-24" d="M666.33,214.33v-86c-63.03,0-115.1,14.55-166,44l43,75c37.36-21.62,76.73-33,123-33Z"/>
  </g>
  <g id="Facilitation">
    <path id="Facilitation_Circle" data-name="Facilitation Circle" class="cls-62" d="M669.33,220.33c-138.62,0-251,112.38-251,251s112.38,251,251,251,251-112.38,251-251-112.38-251-251-251Zm0,394c-78.98,0-143-64.02-143-143s64.02-143,143-143,143,64.02,143,143-64.02,143-143,143Z"/>
  </g>
  <g id="Implementation">
    <circle id="Implementation_Circle" data-name="Implementation Circle" class="cls-63" cx="669.33" cy="471.33" r="137"/>
  </g>
  <g id="Areas_of_Focus_Labels" data-name="Areas of Focus_Labels">
    <text class="cls-34" transform="translate(1029.37 795.3)"><tspan class="cls-53" x="0" y="0">C</tspan><tspan x="12.85" y="0">onstru</tspan><tspan class="cls-33" x="74.59" y="0">c</tspan><tspan x="85.37" y="0">tion</tspan><tspan class="cls-51" x="-9.53" y="24">A</tspan><tspan x="4.17" y="24">dminist</tspan><tspan class="cls-59" x="76.17" y="24">r</tspan><tspan x="83.8" y="24">ation</tspan></text>
    <text class="cls-30" transform="translate(1125.62 580.3)"><tspan x="0" y="0">. . .</tspan></text>
    <text class="cls-41" transform="translate(1126.09 363.3)"><tspan class="cls-66" x="0" y="0">T</tspan><tspan x="10.13" y="0">e</tspan><tspan class="cls-48" x="21.49" y="0">c</tspan><tspan x="32.06" y="0">h</tspan><tspan class="cls-68" x="44.5" y="0">n</tspan><tspan x="57.04" y="0">ology</tspan></text>
    <text class="cls-13" transform="translate(1011.08 143.3)"><tspan x="0" y="0">In</tspan><tspan class="cls-69" x="18.34" y="0">n</tspan><tspan class="cls-64" x="30.89" y="0">o</tspan><tspan class="cls-57" x="42.41" y="0">v</tspan><tspan x="52.85" y="0">ation</tspan></text>
    <text class="cls-36" transform="translate(782.44 15.3)"><tspan class="cls-52" x="0" y="0">F</tspan><tspan x="11.32" y="0">ina</tspan><tspan class="cls-68" x="40.28" y="0">n</tspan><tspan class="cls-70" x="52.83" y="0">c</tspan><tspan class="cls-60" x="63.34" y="0">e</tspan></text>
    <text class="cls-32" transform="translate(457.42 15.3)"><tspan x="0" y="0">Ope</tspan><tspan class="cls-59" x="38.97" y="0">r</tspan><tspan x="46.6" y="0">ations</tspan></text>
    <text class="cls-37" transform="translate(222.92 143.3)"><tspan x="0" y="0">Our </tspan><tspan class="cls-54" x="40.41" y="0">P</tspan><tspan class="cls-43" x="53.39" y="0">eople</tspan></text>
    <text class="cls-18" transform="translate(61.25 363.3)"><tspan x="0" y="0">Ma</tspan><tspan class="cls-71" x="28.29" y="0">r</tspan><tspan class="cls-58" x="35.98" y="0">k</tspan><tspan x="47.45" y="0">eti</tspan><tspan class="cls-69" x="72.05" y="0">n</tspan><tspan x="84.6" y="0">g +</tspan><tspan class="cls-53" x="-24.17" y="24">C</tspan><tspan x="-11.31" y="24">ommunications</tspan></text>
    <text class="cls-40" transform="translate(138.18 580.3)"><tspan x="0" y="0">Clients</tspan></text>
    <text class="cls-38" transform="translate(181.08 795.3)"><tspan x="0" y="0">Subje</tspan><tspan class="cls-33" x="53.15" y="0">c</tspan><tspan x="63.93" y="0">t Ma</tspan><tspan class="cls-49" x="105.15" y="0">t</tspan><tspan class="cls-55" x="112.77" y="0">t</tspan><tspan x="120.29" y="0">er</tspan><tspan class="cls-59" x="25.39" y="24">E</tspan><tspan x="37.34" y="24">xpe</tspan><tspan class="cls-67" x="71.83" y="24">r</tspan><tspan x="79.86" y="24">tise</tspan></text>
    <text class="cls-35" transform="translate(484.67 940.3)"><tspan x="0" y="0">Design</tspan></text>
    <text class="cls-39" transform="translate(792.83 940.3)"><tspan x="0" y="0">Quali</tspan><tspan class="cls-52" x="49.5" y="0">t</tspan><tspan x="57.15" y="0">y</tspan></text>
  </g>
  <g id="Role_Types_Labels" data-name="Role Types_Labels">
    <text class="cls-42" transform="translate(593.13 429.3)"><tspan x="0" y="0">imple</tspan><tspan class="cls-69" x="53.5" y="0">m</tspan><tspan class="cls-60" x="72.49" y="0">entation</tspan></text>
    <text class="cls-42" transform="translate(672.47 319.48) rotate(2.49)"><tspan x="0" y="0">f</tspan></text>
    <text class="cls-42" transform="translate(679.09 319.7) rotate(5.81)"><tspan x="0" y="0">a</tspan></text>
    <text class="cls-42" transform="translate(690.04 320.82) rotate(9.91)"><tspan x="0" y="0">c</tspan></text>
    <text class="cls-42" transform="translate(700.34 322.68) rotate(12.9)"><tspan x="0" y="0">i</tspan></text>
    <text class="cls-42" transform="translate(705.52 323.87) rotate(14.92)"><tspan x="0" y="0">l</tspan></text>
    <text class="cls-42" transform="translate(710.65 325.23) rotate(16.93)"><tspan x="0" y="0">i</tspan></text>
    <text class="cls-42" transform="translate(715.72 326.74) rotate(19.38)"><tspan x="0" y="0">t</tspan></text>
    <text class="cls-42" transform="translate(722.97 329.23) rotate(22.89)"><tspan x="0" y="0">a</tspan></text>
    <text class="cls-42" transform="translate(733.01 333.52) rotate(26.39)"><tspan x="0" y="0">t</tspan></text>
    <text class="cls-42" transform="translate(739.9 336.97) rotate(28.83)"><tspan x="0" y="0">i</tspan></text>
    <text class="cls-42" transform="translate(744.56 339.43) rotate(32.01)"><tspan x="0" y="0">o</tspan></text>
    <text class="cls-42" transform="translate(754.36 345.53) rotate(36.48)"><tspan x="0" y="0">n</tspan></text>
    <text class="cls-42" transform="translate(818.65 251.31) rotate(35.63)"><tspan x="0" y="0">g</tspan></text>
    <text class="cls-42" transform="translate(828.78 258.57) rotate(38.3)"><tspan x="0" y="0">u</tspan></text>
    <text class="cls-42" transform="translate(838.36 266.21) rotate(40.2)"><tspan x="0" y="0">i</tspan></text>
    <text class="cls-42" transform="translate(842.47 269.61) rotate(42.11)"><tspan x="0" y="0">d</tspan></text>
    <text class="cls-42" transform="translate(851.61 277.88) rotate(44.62)"><tspan x="0" y="0">a</tspan></text>
    <text class="cls-42" transform="translate(859.43 285.57) rotate(47.12)"><tspan x="0" y="0">n</tspan></text>
    <text class="cls-42" transform="translate(867.87 294.69) rotate(49.6)"><tspan x="0" y="0">c</tspan></text>
    <text class="cls-42" transform="translate(874.61 302.59) rotate(51.9)"><tspan x="0" y="0">e</tspan></text>
    <text class="cls-42" transform="translate(1000.47 328.01) rotate(67.62)"><tspan x="0" y="0">e</tspan></text>
    <text class="cls-42" transform="translate(1004.66 338.2) rotate(69.32)"><tspan x="0" y="0">x</tspan></text>
    <text class="cls-42" transform="translate(1008.31 347.83) rotate(70.96)"><tspan x="0" y="0">c</tspan></text>
    <text class="cls-42" transform="translate(1011.72 357.7) rotate(72.67)"><tspan x="0" y="0">e</tspan></text>
    <text class="cls-42" transform="translate(1015.05 368.47) rotate(73.99)"><tspan x="0" y="0">l</tspan></text>
    <text class="cls-42" transform="translate(1016.53 373.65) rotate(74.84)"><tspan x="0" y="0">l</tspan></text>
    <text class="cls-42" transform="translate(1017.97 378.8) rotate(76.16)"><tspan x="0" y="0">e</tspan></text>
    <text class="cls-42" transform="translate(1020.67 389.73) rotate(78.03)"><tspan x="0" y="0">n</tspan></text>
    <text class="cls-42" transform="translate(1023.24 401.93) rotate(79.86)"><tspan x="0" y="0">c</tspan></text>
    <text class="cls-42" transform="translate(1025.08 412.19) rotate(81.56)"><tspan x="0" y="0">e</tspan></text>
    <text class="cls-42" transform="translate(1079.98 552.94) rotate(102.1)"><tspan x="0" y="0">v</tspan></text>
    <text class="cls-42" transform="translate(1077.71 563.41) rotate(103.2)"><tspan x="0" y="0">i</tspan></text>
    <text class="cls-42" transform="translate(1076.51 568.61) rotate(104.21)"><tspan x="0" y="0">s</tspan></text>
    <text class="cls-42" transform="translate(1074.16 577.82) rotate(105.23)"><tspan x="0" y="0">i</tspan></text>
    <text class="cls-42" transform="translate(1072.78 583) rotate(106.39)"><tspan x="0" y="0">o</tspan></text>
    <text class="cls-42" transform="translate(1069.49 594.23) rotate(108.03)"><tspan x="0" y="0">n</tspan></text>
  </g>
</svg>